<svg xmlns:xlink="http://www.w3.org/1999/xlink" xmlns="http://www.w3.org/2000/svg" version="1.0" width="2019" height="1295" viewBox="0 0 2019.000000 1295.000000" preserveAspectRatio="xMidYMid meet">

<g transform="translate(0.000000,1295.000000) scale(0.100000,-0.100000)" fill="#fff" stroke="none">
<path d="M14173 11646 c-4 -8 -35 -36 -68 -63 -78 -62 -105 -90 -97 -98 4 -4 0 -6 -8 -5 -31 5 -42 0 -36 -15 4 -10 -2 -19 -17 -24 -24 -10 -118 -84 -187 -149 -25 -23 -50 -42 -57 -42 -6 0 -15 -9 -18 -20 -4 -11 -10 -18 -15 -15 -4 3 -32 -18 -61 -45 -29 -28 -57 -50 -62 -50 -4 0 -7 -6 -6 -12 3 -27 -2 -37 -20 -43 -11 -3 -23 -15 -26 -25 -3 -10 -14 -22 -24 -25 -10 -3 -48 -34 -85 -70 -37 -36 -73 -65 -79 -65 -8 0 -8 -3 1 -8 14 -9 6 -42 -10 -42 -16 0 -117 -112 -112 -124 2 -6 -11 -22 -29 -35 -17 -13 -50 -46 -71 -73 -22 -27 -49 -51 -60 -54 -12 -3 -55 -42 -96 -87 -41 -45 -104 -112 -140 -148 -36 -37 -69 -72 -75 -78 -22 -24 -265 -259 -308 -298 -26 -23 -47 -47 -47 -52 0 -6 -5 -11 -10 -11 -6 0 -35 -18 -65 -40 -46 -34 -58 -39 -79 -30 -15 5 -26 7 -26 4 0 -4 -7 -1 -15 6 -19 16 -32 5 -16 -13 9 -11 8 -17 -3 -26 -15 -13 -86 9 -119 37 -35 31 -30 0 6 -32 39 -34 45 -47 25 -45 -16 1 -122 119 -114 126 3 3 12 0 21 -7 10 -8 15 -9 15 -1 0 6 -4 11 -10 11 -5 0 -28 59 -50 131 -35 110 -40 136 -30 154 6 12 13 62 14 111 1 68 7 101 24 138 28 62 22 83 -26 91 -60 10 -60 10 -54 63 2 31 0 52 -7 56 -6 4 -46 9 -89 11 -42 2 -87 7 -100 11 -19 5 -24 1 -33 -25 -18 -53 -86 -188 -98 -195 -6 -4 -11 -2 -11 3 0 29 -18 5 -33 -43 -10 -29 -28 -70 -42 -90 -14 -20 -25 -48 -25 -61 0 -16 -6 -25 -16 -25 -13 0 -14 12 -8 83 6 81 6 84 -18 99 l-25 17 -6 -49 c-3 -27 -10 -57 -16 -67 -26 -49 -29 -69 -34 -220 -1 -46 2 -83 6 -83 5 0 6 -4 2 -10 -3 -5 -8 -37 -10 -71 -2 -34 -7 -64 -9 -67 -3 -2 0 -14 5 -25 8 -14 8 -30 -1 -56 -10 -30 -9 -48 4 -98 9 -33 16 -80 16 -103 0 -28 13 -70 40 -128 22 -47 39 -86 38 -87 -4 -3 -269 -84 -446 -135 -72 -22 -145 -46 -160 -54 -15 -8 -57 -22 -92 -31 -36 -9 -72 -25 -81 -35 -16 -18 -81 -39 -122 -40 -25 0 -42 48 -26 76 9 17 9 30 0 54 -6 18 -8 37 -5 44 3 6 -1 3 -9 -7 -14 -17 -15 -16 -21 8 -4 14 -11 23 -16 20 -6 -3 -10 -1 -10 5 0 7 8 9 20 5 24 -7 26 4 6 31 -9 11 -12 31 -9 49 l6 30 -27 -24 c-21 -20 -26 -21 -26 -8 0 9 5 19 11 23 6 3 9 19 7 34 -5 34 20 37 33 3 5 -12 10 -23 11 -23 2 0 2 34 0 75 -3 56 -1 78 11 89 12 12 13 24 5 61 -8 38 -7 50 6 64 9 10 13 26 9 39 -3 12 0 28 6 35 6 8 8 17 5 20 -4 3 -8 29 -9 57 -2 37 1 50 11 50 8 0 14 6 14 13 1 45 12 174 16 186 2 7 -1 20 -7 27 -17 20 -6 111 25 218 29 98 33 167 12 185 -12 10 -15 1 -21 -51 -4 -35 -13 -78 -21 -96 -7 -18 -11 -39 -8 -46 3 -8 1 -17 -4 -20 -16 -10 -21 62 -8 114 7 27 9 53 5 57 -5 5 -4 28 2 53 5 25 14 67 20 93 6 26 8 67 5 90 -3 23 -2 67 3 97 10 61 1 82 -27 63 -9 -6 -15 -17 -13 -25 7 -22 2 -69 -9 -83 -5 -7 -12 -25 -14 -41 -2 -16 -8 -40 -14 -54 -18 -42 -25 -64 -27 -83 -1 -11 -8 -22 -15 -27 -7 -4 -9 -13 -6 -19 4 -6 -6 -27 -22 -45 -16 -19 -33 -51 -37 -72 -9 -50 -22 -74 -41 -74 -12 0 -13 4 -3 21 6 12 9 32 6 45 -2 13 0 24 5 24 5 0 6 5 3 10 -4 6 1 31 11 56 13 35 14 48 5 57 -14 14 -31 -5 -31 -35 0 -9 -4 -20 -10 -23 -5 -3 -10 -21 -10 -40 0 -18 -5 -35 -11 -37 -8 -3 -5 -10 6 -22 14 -14 16 -20 5 -26 -7 -4 -10 -15 -7 -23 3 -9 -1 -21 -9 -28 -9 -7 -24 -30 -35 -51 -11 -21 -24 -38 -29 -38 -14 0 -13 5 12 53 12 23 23 56 24 72 4 39 11 83 20 119 5 20 4 27 -4 22 -6 -4 -14 -22 -17 -40 -5 -24 -15 -37 -38 -48 -29 -14 -34 -24 -55 -104 -12 -49 -29 -92 -37 -97 -8 -4 -15 -15 -15 -22 0 -19 -8 -19 -26 0 -9 8 -26 15 -39 15 -22 0 -22 2 -14 41 13 58 5 72 -15 25 -26 -58 -50 -80 -83 -73 -41 8 -85 -3 -79 -19 3 -8 -6 -20 -23 -28 -15 -8 -36 -26 -45 -40 -9 -15 -22 -26 -29 -26 -8 0 -23 -12 -36 -26 -12 -14 -38 -32 -57 -40 -19 -8 -34 -20 -34 -28 0 -7 -13 -19 -30 -26 -19 -8 -30 -20 -30 -33 0 -11 -10 -30 -22 -43 -13 -13 -34 -37 -48 -53 -14 -17 -49 -55 -77 -86 -29 -30 -53 -61 -53 -69 0 -8 -6 -19 -13 -23 -8 -4 -22 -21 -32 -36 -10 -16 -29 -33 -42 -38 -26 -10 -32 -32 -5 -22 11 4 8 -4 -12 -25 -15 -17 -25 -35 -22 -41 4 -5 -3 -15 -14 -21 -11 -6 -20 -17 -20 -26 0 -8 -7 -17 -15 -20 -8 -4 -15 -12 -15 -19 0 -7 -16 -32 -35 -56 -19 -24 -35 -51 -35 -60 0 -9 -6 -19 -14 -22 -7 -3 -22 -23 -32 -44 -21 -40 -31 -56 -101 -164 -24 -37 -43 -77 -43 -89 0 -12 -16 -36 -35 -54 -19 -18 -38 -47 -41 -64 -4 -18 -13 -37 -20 -43 -8 -6 -14 -22 -14 -34 0 -12 -8 -33 -18 -46 -10 -13 -24 -40 -32 -59 -7 -19 -35 -71 -62 -115 -27 -44 -55 -89 -61 -100 -7 -11 -20 -31 -29 -44 -10 -13 -18 -34 -18 -47 0 -14 -8 -25 -20 -29 -11 -3 -23 -18 -26 -33 -9 -38 -21 -49 -62 -62 -20 -7 -55 -20 -77 -30 -22 -11 -57 -22 -78 -25 -22 -4 -49 -18 -67 -35 -16 -16 -52 -36 -79 -44 -28 -8 -73 -33 -101 -55 -29 -23 -58 -41 -66 -41 -8 0 -14 -4 -14 -9 0 -4 -11 -20 -25 -35 -14 -15 -25 -31 -25 -37 0 -13 47 -11 110 6 68 18 72 18 35 -2 -29 -16 -29 -16 -7 -24 12 -5 22 -10 22 -12 0 -2 -20 -17 -45 -33 -25 -15 -45 -31 -45 -35 0 -14 120 -16 176 -3 90 21 94 20 92 -23 -1 -38 -22 -81 -45 -96 -7 -4 -20 -34 -29 -65 -8 -31 -24 -75 -34 -97 -11 -22 -27 -67 -36 -100 -9 -33 -18 -66 -20 -74 -3 -11 -7 -11 -19 -1 -8 7 -15 18 -15 24 0 15 -42 56 -57 56 -6 0 -13 9 -16 20 -3 12 -14 20 -27 20 -24 0 -80 30 -80 43 0 4 -20 17 -45 28 -25 11 -45 24 -45 29 0 6 -9 10 -20 10 -11 0 -20 -7 -20 -16 0 -8 -4 -13 -10 -9 -5 3 -7 12 -4 20 4 10 -3 18 -20 25 -14 5 -26 13 -26 18 0 5 -15 16 -34 24 -26 13 -36 14 -46 5 -10 -10 -12 -8 -7 6 5 13 0 20 -19 27 -14 6 -30 7 -36 4 -11 -7 -71 21 -111 54 -16 12 -39 25 -53 28 -13 3 -24 10 -24 15 0 5 -9 9 -20 9 -11 0 -20 -4 -20 -10 0 -5 -7 -10 -15 -10 -8 0 -15 5 -15 10 0 6 4 10 10 10 5 0 7 6 4 14 -3 8 -12 12 -20 9 -7 -3 -17 2 -20 11 -8 21 -61 49 -79 42 -7 -2 -15 4 -18 15 -4 14 -14 19 -41 19 -19 0 -50 9 -68 20 -18 11 -50 25 -70 31 -21 5 -38 13 -38 17 0 9 73 44 86 41 5 -2 29 16 53 39 24 23 53 42 63 42 10 0 18 4 18 8 0 5 10 14 23 20 21 10 21 11 -8 13 -44 3 -65 1 -110 -13 -47 -14 -67 -27 -59 -39 3 -5 -3 -9 -13 -9 -10 0 -36 -7 -58 -15 -55 -19 -71 -20 -55 0 7 8 21 15 31 15 11 0 19 5 19 11 0 5 16 17 36 25 20 8 53 27 75 41 21 13 42 22 47 19 5 -3 23 -1 41 4 17 5 29 5 26 0 -7 -11 2 -16 47 -24 35 -6 37 -5 49 28 13 36 63 81 78 71 5 -3 20 -1 33 5 22 10 22 10 1 7 -35 -3 -28 14 14 37 21 12 39 30 41 40 4 17 -1 18 -49 12 -50 -7 -52 -6 -34 8 11 8 25 16 31 16 7 0 18 10 27 23 16 24 93 64 104 54 9 -10 -17 -37 -36 -37 -9 0 -21 -11 -28 -25 -6 -14 -9 -25 -7 -25 12 0 77 50 90 69 9 12 21 21 29 21 8 0 31 15 51 32 23 20 46 32 59 30 28 -4 181 151 244 246 24 37 52 79 63 94 30 45 24 190 -8 202 -9 3 -12 11 -9 17 9 14 -31 56 -61 63 -15 4 -24 14 -24 25 0 36 -56 59 -183 76 -20 2 -46 9 -56 15 -11 5 -29 10 -40 10 -12 0 -21 5 -21 10 0 7 -15 9 -37 5 -30 -4 -34 -3 -18 5 16 8 14 9 -15 6 -19 -3 -45 -8 -57 -12 -14 -4 -23 -2 -23 5 0 6 8 11 17 11 33 0 -2 18 -49 24 -29 5 -49 3 -53 -4 -4 -6 -14 -9 -23 -6 -10 3 -62 7 -117 11 -55 3 -133 9 -172 13 -40 5 -73 5 -73 1 0 -4 8 -9 18 -12 9 -2 -5 -4 -33 -4 -27 -1 -72 -4 -100 -7 -27 -3 -90 -8 -140 -11 -49 -2 -105 -7 -123 -11 l-34 -5 4 60 c4 69 -7 88 -24 43 -7 -18 -16 -32 -20 -32 -4 0 -5 -6 -2 -13 2 -7 -4 -22 -16 -32 -19 -18 -20 -18 -20 2 0 10 7 28 15 39 8 10 15 40 15 65 0 38 4 50 25 63 13 9 26 16 28 16 8 0 5 -46 -5 -57 -8 -10 -5 -13 11 -13 15 0 21 6 21 23 0 12 7 35 15 51 17 33 19 56 5 56 -5 0 -10 -7 -10 -16 0 -14 -3 -14 -15 -4 -8 7 -15 9 -15 4 0 -4 -6 0 -13 11 -13 17 -15 17 -30 -6 -10 -13 -17 -30 -17 -38 0 -8 -6 -22 -14 -30 -7 -9 -21 -39 -30 -67 -9 -28 -30 -64 -46 -79 -17 -16 -30 -37 -30 -47 0 -11 -10 -20 -27 -24 -16 -3 -34 -7 -40 -10 -16 -4 -16 19 -3 65 6 23 6 39 -1 47 -7 9 -7 30 0 70 8 43 8 61 -1 72 -7 8 -12 24 -13 35 0 11 -5 22 -11 24 -11 4 -44 -58 -44 -82 0 -8 -8 -31 -19 -50 -15 -29 -21 -33 -30 -21 -10 11 -7 17 11 30 17 12 19 19 11 27 -19 19 -41 -7 -59 -67 -10 -35 -19 -51 -28 -48 -14 5 -10 50 5 60 5 3 9 18 9 35 0 27 16 67 32 79 14 11 28 63 28 103 0 43 14 107 30 142 20 42 38 115 29 121 -15 9 -27 -5 -34 -39 -9 -45 -43 -117 -55 -117 -6 0 -10 -7 -10 -15 0 -8 4 -15 9 -15 5 0 3 -13 -5 -30 -8 -16 -18 -46 -21 -67 -3 -21 -11 -42 -18 -48 -6 -5 -19 -24 -28 -41 -9 -17 -23 -36 -31 -43 -9 -8 -16 -27 -16 -43 0 -16 -7 -39 -15 -51 -8 -13 -25 -65 -38 -116 l-24 -93 -114 -29 c-63 -16 -152 -42 -199 -58 -47 -16 -101 -32 -120 -36 -19 -4 -39 -11 -45 -15 -5 -5 -30 -13 -55 -20 -25 -7 -52 -18 -61 -26 -9 -8 -49 -21 -90 -30 -41 -8 -87 -22 -103 -30 -41 -20 -43 -18 -15 14 55 60 55 62 29 83 -14 10 -20 19 -13 19 16 0 148 128 140 136 -10 10 -40 -5 -77 -37 -27 -24 -123 -77 -212 -117 -20 -9 -4 20 36 63 24 27 52 64 62 84 19 37 258 281 275 281 5 0 9 5 9 10 0 24 -43 0 -128 -72 -18 -15 -43 -28 -56 -28 -13 0 -35 -9 -49 -20 -14 -11 -28 -20 -32 -20 -4 0 -38 -30 -77 -67 -38 -38 -80 -73 -93 -78 -14 -6 -37 -22 -52 -36 -16 -14 -46 -37 -68 -52 -22 -15 -71 -56 -110 -92 -38 -36 -73 -65 -77 -65 -4 0 -8 -8 -8 -18 0 -22 -35 -62 -55 -62 -8 0 -15 -6 -15 -13 0 -6 -20 -28 -45 -47 -89 -68 -180 -145 -203 -172 -13 -16 -27 -28 -32 -28 -14 0 -138 -128 -154 -158 -9 -17 -25 -33 -36 -37 -11 -3 -20 -11 -20 -17 0 -12 -67 -73 -109 -99 -50 -32 -146 -122 -154 -145 -5 -14 -17 -24 -27 -24 -10 0 -21 -8 -25 -17 -3 -10 -28 -33 -55 -51 -27 -19 -52 -43 -56 -54 -9 -30 -56 -69 -76 -64 -10 2 -18 -1 -18 -7 0 -7 -11 -25 -24 -42 l-25 -30 -36 38 c-21 20 -41 37 -46 37 -5 0 -9 5 -9 12 0 15 -91 148 -102 148 -4 0 -8 6 -8 13 0 8 -14 27 -30 43 -17 16 -40 51 -52 77 -11 26 -29 52 -39 58 -11 5 -48 9 -84 8 -53 -2 -63 -4 -54 -15 9 -11 7 -14 -8 -14 -20 0 -42 19 -133 120 -28 30 -50 49 -50 42 0 -6 9 -39 21 -73 27 -76 15 -95 -29 -45 l-31 36 -56 -21 c-31 -11 -62 -31 -71 -44 -9 -13 -21 -22 -29 -19 -7 3 -16 1 -20 -5 -3 -6 -17 -11 -31 -11 -14 0 -36 -12 -50 -27 -21 -23 -24 -33 -18 -68 3 -22 11 -45 16 -52 5 -7 7 -16 4 -21 -12 -20 27 -102 74 -155 28 -30 50 -63 50 -72 0 -9 -4 -14 -9 -10 -5 3 -13 0 -17 -6 -5 -8 0 -10 18 -6 20 5 27 3 31 -13 3 -11 1 -20 -4 -20 -17 0 -9 -43 14 -74 13 -17 27 -39 30 -49 4 -11 16 -21 27 -24 11 -3 28 -24 38 -47 11 -22 40 -65 65 -95 26 -30 47 -60 47 -67 0 -7 18 -28 40 -45 43 -35 50 -60 23 -81 -10 -7 -25 -27 -33 -43 -9 -17 -28 -36 -43 -43 -15 -7 -27 -19 -27 -26 0 -15 -42 -56 -58 -56 -7 0 -12 -8 -12 -18 0 -26 -29 -82 -45 -89 -8 -2 -12 -10 -9 -17 3 -7 -7 -18 -21 -24 -14 -7 -25 -19 -23 -27 3 -16 -33 -64 -100 -131 -23 -24 -48 -57 -53 -74 -6 -16 -15 -30 -20 -30 -5 0 -28 -18 -50 -40 -30 -29 -40 -46 -36 -60 4 -16 -4 -26 -32 -45 -21 -13 -46 -39 -55 -59 -10 -22 -24 -36 -35 -36 -19 0 -36 -25 -32 -47 1 -6 -12 -21 -28 -32 -16 -12 -32 -34 -36 -50 -3 -16 -17 -41 -31 -56 -13 -14 -24 -35 -24 -46 0 -11 -10 -23 -24 -29 -16 -6 -27 -20 -31 -40 -4 -17 -18 -43 -31 -57 -13 -14 -33 -53 -43 -87 -30 -95 -45 -130 -61 -143 -13 -10 -13 -14 1 -28 15 -16 20 -14 63 29 25 25 47 46 50 46 11 0 -2 -32 -22 -55 -12 -14 -22 -32 -22 -41 0 -23 -22 -97 -32 -109 -13 -14 -10 -23 12 -35 30 -16 56 3 67 47 5 24 17 42 31 48 12 5 22 15 22 21 0 7 12 20 28 29 15 10 59 51 99 91 39 41 76 74 82 74 5 0 27 20 47 44 40 49 74 65 74 37 0 -10 -13 -27 -30 -39 -26 -19 -30 -29 -30 -68 l0 -45 50 43 c27 24 50 49 50 56 0 7 14 19 31 26 17 7 31 17 32 22 2 11 44 6 77 -9 25 -12 42 -67 21 -67 -18 0 -12 -35 9 -50 14 -10 17 -17 8 -27 -12 -15 1 -17 40 -7 16 5 21 12 17 24 -4 11 3 23 20 34 14 9 25 25 25 36 0 11 6 20 14 20 8 0 17 8 21 18 3 11 16 24 29 30 18 8 23 16 19 31 -3 12 -1 21 6 21 6 0 11 -4 11 -10 0 -19 26 -10 54 19 28 29 28 55 1 44 -29 -11 -12 19 63 106 17 21 32 44 32 50 0 6 5 11 10 11 6 0 10 -2 10 -5 0 -11 -50 -85 -71 -104 -20 -18 -20 -21 -5 -27 19 -7 66 31 66 54 0 8 12 26 28 42 102 103 163 198 134 208 -20 6 -13 29 11 37 20 7 19 8 -11 12 -33 4 -33 5 -27 46 6 39 20 59 49 71 7 3 4 9 -6 16 -25 15 -23 27 9 56 65 57 133 84 89 35 -10 -11 -15 -24 -12 -29 10 -17 60 -20 91 -6 29 14 29 14 7 -2 -22 -16 -30 -44 -13 -44 13 0 71 56 71 68 0 6 8 13 19 17 20 6 81 -40 81 -62 0 -7 5 -13 11 -13 6 0 24 -13 40 -29 16 -16 42 -35 59 -43 16 -7 30 -19 30 -25 0 -7 5 -13 11 -13 7 0 34 -22 60 -50 26 -27 55 -50 64 -50 8 0 18 -7 21 -15 4 -8 11 -15 18 -15 11 0 43 -26 119 -95 16 -14 34 -25 41 -25 7 0 30 -13 50 -29 21 -17 51 -36 67 -43 16 -7 29 -19 29 -25 0 -7 5 -13 10 -13 6 0 31 -19 55 -42 25 -24 49 -43 53 -43 12 -1 86 -51 101 -69 7 -9 19 -16 25 -16 7 0 23 -11 36 -25 13 -14 31 -25 41 -25 9 0 19 -6 22 -14 3 -7 17 -16 30 -20 14 -3 49 -22 78 -41 29 -19 76 -42 104 -51 53 -18 212 -85 256 -109 54 -29 79 -36 79 -20 0 8 -7 15 -15 15 -8 0 -15 4 -15 9 0 5 -10 13 -23 16 -12 4 -36 18 -54 31 -17 13 -37 24 -43 24 -12 0 -63 39 -137 104 -33 30 -43 45 -39 60 6 22 -28 66 -50 66 -7 0 -26 16 -41 35 -15 19 -32 35 -38 35 -14 0 -75 72 -69 82 3 4 29 -12 58 -37 29 -25 62 -45 74 -45 11 0 22 -7 26 -15 3 -8 12 -15 21 -15 8 0 15 -4 15 -9 0 -13 63 -49 126 -71 74 -25 70 -6 -7 44 -40 25 -66 50 -74 70 -13 30 -67 86 -83 86 -5 0 -14 12 -21 28 -11 24 -48 83 -103 165 -28 41 -2 35 79 -17 88 -57 147 -82 229 -102 37 -8 80 -24 95 -35 35 -24 54 -24 56 0 1 15 -8 23 -35 32 -20 6 -45 19 -54 29 -15 16 -15 19 0 33 14 15 14 18 -8 37 -13 11 -30 20 -39 20 -9 0 -51 34 -95 75 -60 58 -81 73 -91 65 -10 -8 -15 -8 -21 1 -4 7 -2 15 4 17 21 7 13 21 -27 48 -22 14 -42 37 -45 50 -6 21 -12 25 -39 22 -28 -3 -34 1 -49 35 -13 27 -24 37 -42 37 -15 0 -35 14 -56 40 -18 22 -39 40 -46 40 -8 0 -14 4 -14 9 0 5 -16 26 -34 46 -26 27 -40 35 -55 30 -10 -3 -22 -1 -26 5 -3 5 -1 10 4 10 24 0 8 32 -28 58 -22 15 -41 36 -43 47 -2 14 -13 21 -38 25 -38 7 -114 53 -103 63 7 7 -93 107 -107 107 -8 0 -40 51 -40 64 0 2 8 12 17 22 10 9 18 33 19 52 1 37 31 72 62 72 8 0 30 15 48 33 18 17 40 38 49 46 9 7 14 19 12 25 -3 7 14 23 39 37 31 17 44 30 44 46 0 12 5 25 10 28 6 4 8 11 4 16 -4 6 -16 1 -30 -12 -35 -33 -40 -16 -6 22 16 19 31 42 35 51 7 21 87 64 87 47 0 -8 4 -8 12 -1 7 6 18 11 23 11 6 1 25 6 43 12 28 9 31 13 21 26 -10 12 -10 16 2 24 8 5 19 9 26 9 6 0 24 20 40 43 15 24 48 59 72 78 76 57 91 75 91 104 0 16 12 39 31 59 26 28 59 79 59 93 0 2 -17 1 -38 -2 l-37 -7 65 62 c35 34 75 66 87 71 13 5 22 12 21 17 -2 5 13 24 33 44 20 19 38 40 40 46 10 26 670 244 688 227 1 -2 -32 -15 -75 -29 -100 -31 -79 -32 58 -2 102 22 158 24 158 5 0 -4 -10 -14 -22 -20 -13 -7 -26 -17 -30 -23 -4 -6 -22 -16 -40 -23 -25 -9 -28 -12 -11 -12 31 -1 54 -12 47 -22 -3 -5 8 -9 25 -9 16 0 33 5 36 10 4 6 -6 10 -22 10 -22 0 -25 2 -13 10 27 17 47 12 46 -12 -4 -59 -44 -190 -68 -224 -4 -6 -10 -28 -12 -50 -2 -21 -11 -57 -21 -79 -9 -21 -18 -72 -20 -112 -4 -77 -8 -93 -30 -93 -19 0 -25 -23 -15 -63 5 -25 4 -37 -5 -40 -6 -3 -12 -20 -13 -37 0 -18 -7 -39 -15 -49 -8 -9 -20 -33 -26 -53 -7 -21 -24 -47 -39 -58 -15 -11 -32 -24 -38 -29 -6 -5 -20 -12 -32 -15 -12 -4 -29 -20 -39 -37 -10 -16 -25 -31 -34 -34 -9 -3 -19 -14 -22 -25 -3 -11 -32 -32 -71 -52 -36 -18 -66 -38 -66 -45 0 -7 -19 -18 -42 -25 -57 -16 -93 -39 -78 -48 14 -9 15 -8 -70 -52 -39 -20 -70 -44 -80 -62 -8 -16 -24 -34 -35 -40 -11 -6 -50 -30 -87 -53 -36 -24 -77 -43 -91 -43 -13 0 -30 -6 -36 -14 -10 -12 -8 -17 10 -26 12 -7 24 -8 28 -3 9 14 99 45 114 40 11 -4 -226 -127 -246 -127 -11 0 -88 -52 -84 -57 3 -2 37 12 78 32 40 19 81 35 91 35 10 0 52 18 95 40 43 21 92 44 108 50 27 10 135 54 306 126 63 27 80 29 96 13 7 -7 31 -2 83 21 46 19 77 27 83 21 13 -13 -2 -34 -19 -27 -17 6 -16 10 -19 -84 -2 -81 -6 -99 -40 -175 -12 -27 -28 -81 -35 -120 -6 -38 -20 -108 -30 -155 -10 -47 -24 -123 -30 -170 -12 -82 -29 -162 -48 -226 -6 -17 -7 -37 -3 -43 11 -18 35 13 76 102 21 42 41 77 46 77 5 0 9 6 9 13 0 8 9 22 20 32 11 10 20 26 20 36 0 10 9 26 20 37 10 10 27 35 36 57 9 21 32 64 52 94 23 36 35 66 33 85 -1 22 2 27 14 22 9 -3 15 0 15 8 0 7 9 21 20 31 12 10 19 24 16 31 -3 7 2 20 9 31 13 17 14 16 10 -7 -3 -14 -8 -41 -11 -60 -3 -19 -9 -46 -14 -60 -4 -14 -13 -50 -20 -80 -6 -30 -19 -70 -28 -87 -12 -24 -13 -36 -5 -44 14 -14 53 22 53 51 0 10 9 24 20 30 11 6 20 20 20 31 0 28 36 95 55 102 8 4 15 13 15 21 0 7 10 16 23 20 13 3 29 21 39 43 31 71 50 131 44 141 -3 5 11 18 31 27 32 16 40 16 61 4 30 -17 37 -68 16 -117 -20 -49 3 -36 32 18 13 24 37 57 53 74 37 39 114 198 99 207 -14 9 0 51 23 69 11 9 26 40 34 70 19 74 87 140 142 140 21 0 56 3 77 7 28 4 37 3 32 -5 -9 -16 7 -15 22 0 9 9 12 9 12 0 0 -7 10 -12 23 -12 12 0 47 -9 77 -21 35 -13 65 -18 86 -15 24 5 36 1 55 -17 50 -49 254 -126 293 -111 11 4 16 1 16 -10 0 -9 -5 -16 -11 -16 -24 0 0 -24 52 -54 30 -17 66 -39 80 -49 98 -72 135 -91 194 -100 37 -6 38 -5 21 8 -19 14 -19 15 6 15 15 0 30 -5 33 -10 3 -6 17 -7 31 -4 27 7 34 -13 9 -23 -12 -4 -8 -11 19 -29 19 -13 40 -24 45 -24 6 0 11 -4 11 -10 0 -5 6 -10 13 -10 8 0 25 -9 38 -21 13 -12 41 -29 61 -40 20 -10 41 -25 45 -31 8 -13 69 -38 91 -38 20 0 13 20 -15 45 -22 19 -25 26 -16 36 10 10 22 8 60 -9 27 -12 73 -26 103 -32 30 -6 68 -17 84 -26 58 -29 43 2 -24 55 -63 49 -68 55 -52 67 21 16 72 18 72 3 0 -6 8 -8 19 -4 12 3 23 0 28 -8 11 -19 73 -33 73 -17 0 18 68 5 136 -25 31 -14 62 -25 69 -25 8 0 27 -11 43 -25 17 -14 33 -25 36 -25 3 0 31 -16 63 -36 39 -25 70 -38 98 -39 42 -1 105 -24 105 -37 0 -5 6 -8 14 -8 7 0 19 -7 26 -15 7 -8 23 -15 37 -15 15 0 35 -13 54 -35 27 -30 59 -46 59 -30 0 13 -98 103 -118 109 -12 4 -22 12 -22 18 0 13 -41 47 -57 48 -7 0 -13 4 -13 9 0 4 -18 20 -40 35 -87 57 -116 77 -140 96 -23 18 -23 21 -9 33 9 7 20 27 23 45 4 17 14 35 21 39 7 5 15 21 17 38 2 17 15 40 31 53 15 13 27 32 27 43 0 16 7 19 43 19 37 1 45 5 68 39 20 28 24 42 17 55 -8 14 -1 25 31 55 23 21 41 43 41 50 0 25 46 101 60 99 8 -2 27 10 43 25 20 21 27 38 27 67 0 21 4 41 9 44 4 3 11 19 14 36 5 24 12 30 32 30 27 0 32 9 15 26 -8 8 -6 15 5 24 8 7 15 19 15 26 0 8 7 14 15 14 9 0 23 16 32 35 14 30 23 36 69 45 29 6 55 17 57 25 3 7 21 16 39 20 18 4 43 13 56 21 12 8 30 13 39 12 10 -2 24 12 38 39 20 37 24 40 38 26 11 -11 25 -14 50 -9 29 5 37 12 42 36 7 34 8 34 33 19 14 -9 33 -3 93 25 101 48 187 77 194 65 4 -5 8 -33 9 -61 2 -29 11 -87 19 -128 9 -41 25 -160 36 -264 12 -104 26 -195 32 -202 6 -7 8 -18 5 -23 -9 -14 44 -138 72 -168 13 -14 24 -35 24 -47 2 -28 16 -46 38 -46 11 0 27 -19 44 -52 50 -99 95 -139 55 -49 -22 50 -21 71 3 47 9 -9 19 -16 23 -16 13 0 53 -48 85 -100 41 -68 73 -110 69 -90 -1 8 1 23 6 33 5 12 -2 40 -19 80 -28 66 -32 87 -17 87 6 0 -3 32 -20 72 -16 39 -27 73 -25 76 3 2 14 -19 26 -46 24 -55 53 -88 69 -77 8 4 8 13 0 28 -10 20 -10 20 4 7 9 -8 39 -73 67 -145 29 -71 54 -134 57 -139 11 -18 24 24 13 43 -14 26 -13 41 3 41 13 0 57 -80 57 -103 0 -8 -28 -17 -77 -24 -103 -16 -686 -168 -737 -193 -23 -10 -60 -22 -83 -26 -24 -4 -49 -16 -61 -29 -13 -14 -40 -26 -83 -34 -35 -7 -76 -19 -91 -27 -16 -8 -28 -13 -28 -10 0 2 11 34 25 71 14 37 24 72 22 78 -5 16 -56 -77 -73 -132 -10 -35 -20 -50 -37 -55 -35 -9 -38 -7 -27 14 6 11 8 25 5 30 -4 6 5 35 19 65 24 52 24 55 6 55 -11 0 -28 -10 -39 -21 l-20 -22 5 39 5 39 -18 -24 c-10 -14 -34 -41 -54 -60 -43 -43 -101 -130 -93 -142 3 -5 -6 -9 -20 -9 -30 0 -32 10 -10 52 19 37 5 60 -22 37 -16 -13 -17 -12 -10 11 5 14 9 40 10 57 2 18 10 58 20 90 10 32 27 90 39 128 11 39 32 89 45 113 28 49 24 62 -13 38 -29 -19 -87 -104 -80 -116 3 -5 -20 -50 -50 -101 -31 -52 -58 -105 -62 -119 -3 -14 -13 -34 -23 -45 -23 -27 -40 -60 -40 -80 0 -9 -9 -28 -20 -42 -11 -14 -22 -40 -26 -59 -3 -19 -10 -34 -15 -34 -5 0 -9 -12 -9 -26 0 -43 -18 -63 -71 -79 -29 -8 -57 -19 -63 -23 -6 -5 -27 -15 -46 -22 -19 -7 -69 -29 -110 -47 -107 -49 -102 -47 -240 -100 -69 -26 -150 -62 -180 -80 -30 -18 -59 -33 -64 -33 -4 0 -54 -21 -110 -46 -55 -26 -130 -60 -166 -76 -36 -16 -82 -39 -103 -50 -43 -22 -59 -18 -34 10 10 10 17 22 17 26 0 13 -58 -4 -106 -31 -24 -14 -59 -26 -77 -28 -18 -2 -50 -6 -72 -9 -53 -8 -23 6 71 33 39 12 78 28 85 37 13 16 11 17 -26 11 -34 -6 -37 -5 -17 5 12 6 22 15 22 20 0 5 5 6 11 3 6 -4 16 0 22 9 7 8 50 25 97 38 47 12 96 30 110 39 14 10 61 27 105 39 44 12 85 26 91 31 5 4 20 6 32 2 16 -4 22 -1 22 12 0 18 -10 18 -84 -1 -15 -3 -26 -2 -26 4 0 14 40 38 80 47 19 4 46 16 60 26 35 26 218 77 318 89 52 6 89 15 99 25 8 9 25 15 37 14 38 -3 44 1 39 21 -6 24 -9 24 -64 4 -68 -25 -103 -32 -124 -24 -15 5 -6 10 38 20 36 8 54 17 48 23 -5 5 -22 5 -43 -2 -153 -49 -162 -51 -174 -40 -17 14 -71 5 -209 -36 -60 -18 -143 -36 -183 -39 -77 -7 -758 -179 -850 -215 -29 -11 -52 -16 -52 -11 0 6 -16 10 -35 10 -35 0 -46 12 -23 26 20 13 -31 22 -82 16 -25 -3 -49 -11 -53 -19 -7 -11 -10 -11 -23 1 -8 8 -14 19 -14 25 0 6 -5 11 -11 11 -5 0 -7 5 -4 11 4 5 9 36 12 67 2 31 9 61 14 67 12 12 12 35 0 35 -5 0 -21 -25 -35 -55 -15 -30 -39 -74 -55 -97 -16 -24 -39 -64 -52 -90 -13 -27 -31 -50 -40 -53 -13 -5 -19 -19 -21 -53 -2 -32 -8 -48 -18 -50 -26 -4 -25 77 1 104 13 14 19 30 15 39 -3 9 1 26 9 39 9 13 15 36 14 52 0 16 2 42 5 57 6 26 5 27 -14 17 -23 -12 -25 -8 -8 23 6 12 19 51 29 87 9 36 20 76 25 90 17 56 -24 -2 -62 -87 -22 -48 -69 -149 -106 -225 -38 -77 -68 -148 -68 -159 0 -11 -14 -46 -30 -79 -35 -69 -39 -71 -271 -170 -79 -34 -148 -66 -153 -71 -6 -5 -24 -9 -41 -9 -20 0 -48 -12 -75 -31 -23 -17 -78 -47 -121 -66 -44 -20 -79 -40 -79 -44 0 -5 -6 -9 -13 -9 -8 0 -22 -9 -32 -20 -10 -11 -33 -22 -51 -26 -18 -3 -39 -12 -45 -20 -7 -8 -20 -12 -31 -8 -13 4 -40 -8 -81 -34 -34 -22 -87 -52 -117 -66 -30 -14 -68 -35 -85 -46 -16 -11 -43 -27 -60 -36 -51 -28 -113 -83 -121 -106 -4 -12 -26 -42 -50 -65 -51 -52 -64 -82 -39 -96 14 -7 15 -11 4 -18 -28 -17 3 -22 36 -6 43 20 46 21 43 5 -2 -9 13 -13 52 -13 30 0 57 -4 60 -8 3 -4 -13 -18 -35 -30 -22 -12 -41 -31 -43 -42 -6 -31 -20 -43 -83 -72 -33 -15 -59 -32 -59 -38 0 -5 -27 -26 -59 -45 -35 -20 -55 -38 -48 -42 6 -3 24 3 40 14 20 15 54 23 111 29 85 9 124 17 141 29 6 5 29 13 51 19 23 6 52 22 66 35 13 14 37 28 53 32 17 4 39 13 50 20 11 6 56 22 100 33 44 12 99 31 122 41 24 11 47 20 52 20 6 0 25 9 43 19 18 11 41 21 52 23 10 2 32 15 48 30 17 16 51 32 85 39 31 7 63 20 72 30 9 9 50 24 91 34 41 10 99 29 128 42 61 29 82 26 75 -11 -3 -14 -9 -26 -13 -26 -5 0 -11 -18 -15 -39 -3 -22 -13 -47 -20 -58 -8 -10 -15 -26 -15 -35 0 -10 -4 -18 -10 -18 -5 0 -10 -12 -10 -26 0 -25 -30 -137 -76 -287 -27 -88 -27 -90 -15 -83 23 15 19 -33 -9 -92 -16 -35 -30 -72 -30 -81 0 -9 -5 -22 -12 -29 -6 -6 -12 -22 -14 -34 -1 -13 -7 -59 -14 -103 -7 -44 -14 -107 -17 -140 -2 -33 -10 -73 -18 -90 -7 -16 -18 -56 -24 -88 -6 -32 -13 -63 -17 -68 -3 -5 -10 -38 -16 -72 -5 -34 -12 -73 -14 -87 -10 -59 -27 -209 -30 -255 -1 -27 -4 -57 -7 -65 -3 -8 -11 -52 -17 -97 -9 -61 -9 -90 -1 -115 9 -28 8 -43 -5 -79 -12 -33 -17 -83 -18 -200 -1 -140 1 -159 17 -177 11 -12 16 -26 12 -32 -4 -6 1 -20 10 -30 14 -16 15 -23 6 -34 -9 -11 -9 -24 -1 -56 6 -23 9 -48 6 -56 -3 -7 1 -20 9 -28 8 -8 15 -24 15 -35 0 -31 19 -73 30 -66 5 3 10 42 10 86 0 58 3 79 13 78 37 -5 40 0 35 66 -4 39 -2 65 5 68 5 1 11 18 14 37 2 18 11 42 20 52 11 13 18 42 20 91 4 65 25 128 40 113 8 -8 33 20 33 37 0 13 18 77 41 147 4 14 5 -12 2 -62 -5 -80 -4 -88 12 -88 10 0 24 8 31 18 12 15 13 15 14 -10 0 -40 10 -58 31 -58 16 0 17 -3 8 -27 -6 -16 -11 -57 -11 -93 0 -36 -5 -73 -10 -83 -11 -22 -1 -57 17 -57 7 0 13 10 13 23 2 50 10 89 40 178 42 130 55 183 59 259 4 73 8 90 22 90 12 0 20 -59 24 -166 l2 -82 33 5 c24 4 36 1 46 -12 8 -11 19 -15 32 -11 24 7 53 118 53 205 1 31 7 64 16 77 8 13 15 37 15 54 0 17 6 43 14 58 20 40 27 91 16 113 -7 11 -7 25 -1 36 16 33 31 89 31 119 0 48 11 76 27 70 26 -10 35 6 13 21 -17 12 -19 17 -9 24 11 6 9 14 -9 38 -25 35 -29 69 -7 77 8 4 15 12 15 19 0 9 8 11 22 7 21 -5 21 -5 1 -13 -30 -11 -36 -27 -13 -34 11 -3 20 -12 21 -18 1 -7 2 -21 3 -32 2 -29 30 -25 34 5 2 14 5 32 8 40 3 8 8 43 10 77 l4 62 -35 -15 c-33 -13 -35 -13 -35 4 0 10 5 23 12 30 8 8 5 14 -14 21 l-26 10 38 75 c29 58 34 76 23 76 -11 0 -14 6 -9 22 4 13 11 55 17 93 6 39 14 78 20 87 5 10 9 28 9 40 0 13 9 42 19 65 11 23 17 43 15 45 -2 3 10 17 26 33 33 31 35 28 20 -26 -6 -23 -18 -39 -30 -42 -16 -4 -19 -12 -16 -49 2 -24 11 -59 20 -77 15 -29 16 -35 3 -49 -8 -10 -18 -37 -22 -62 -4 -25 -10 -49 -13 -55 -4 -5 -7 -16 -9 -24 -9 -65 -27 -111 -44 -116 -25 -8 -15 -25 10 -18 10 3 22 0 25 -6 11 -17 25 -13 25 7 -1 9 6 35 15 57 19 49 20 95 4 95 -7 1 -3 9 10 20 36 30 63 139 55 222 -4 48 -3 68 6 68 6 0 11 12 11 28 0 15 7 40 15 56 8 15 15 36 15 46 0 9 9 29 20 43 11 14 20 37 20 50 0 14 4 29 10 32 6 3 10 24 10 45 0 23 16 77 36 127 20 47 37 105 38 127 1 23 10 55 19 72 9 17 19 62 23 99 5 49 12 70 25 78 11 7 19 20 19 31 0 23 21 98 31 110 4 4 3 22 -2 39 -7 24 -5 35 8 49 9 10 21 18 26 18 6 0 33 11 61 23 28 13 78 34 111 47 33 13 69 29 80 37 11 7 28 13 38 13 10 0 29 7 42 16 13 8 84 30 158 49 73 18 148 40 165 49 20 10 33 12 37 6 4 -6 15 -8 26 -5 11 4 33 4 50 0 25 -6 28 -9 18 -21 -16 -19 -6 -28 18 -16 10 5 40 12 67 16 40 5 47 4 37 -8 -17 -20 10 -28 34 -10 10 8 26 14 36 14 17 0 95 31 141 56 31 17 38 17 38 4 0 -5 -11 -12 -25 -16 -13 -3 -30 -13 -37 -22 -12 -13 -10 -14 10 -3 12 6 22 9 22 5 0 -4 8 0 18 8 9 8 25 18 36 22 14 5 16 9 6 20 -10 13 -17 13 -53 0 -23 -8 -37 -11 -32 -6 14 13 135 51 135 43 0 -4 -6 -13 -12 -20 -11 -11 -8 -12 14 -7 42 10 75 24 82 34 7 12 -34 3 -51 -11 -9 -6 -13 -6 -13 1 0 15 50 52 70 52 13 0 16 -6 12 -27 -4 -23 -2 -26 9 -15 7 6 21 12 30 12 10 0 27 13 39 30 12 17 29 30 39 30 9 0 22 5 28 11 8 8 17 8 32 0 15 -8 27 -9 40 -1 11 5 22 10 25 10 14 0 4 -69 -14 -103 -11 -20 -20 -44 -20 -52 0 -9 -6 -26 -14 -38 -8 -12 -17 -42 -20 -67 -3 -25 -11 -65 -17 -90 -5 -25 -14 -65 -18 -90 -10 -65 -26 -83 -93 -110 -33 -13 -65 -32 -72 -42 -6 -10 -21 -18 -33 -18 -12 0 -37 -9 -56 -20 -18 -11 -60 -29 -92 -40 -32 -11 -64 -25 -71 -31 -8 -6 -25 -8 -39 -5 -14 4 -25 2 -25 -4 0 -5 -7 -10 -17 -10 -9 0 -31 -11 -49 -25 -19 -14 -39 -22 -48 -19 -10 4 -16 1 -16 -9 0 -8 -15 -22 -32 -31 -47 -24 -71 -39 -83 -53 -5 -7 -39 -28 -73 -47 -35 -18 -69 -44 -75 -57 -7 -13 -32 -34 -56 -46 -50 -25 -93 -62 -86 -74 10 -16 212 59 223 83 2 4 19 10 38 14 19 3 34 10 34 15 0 5 15 9 34 9 22 0 36 6 40 16 3 9 12 14 19 11 6 -2 21 4 32 14 18 16 26 17 63 7 24 -6 41 -16 39 -22 -2 -6 -29 -23 -60 -39 -48 -23 -57 -32 -62 -61 -6 -28 -10 -33 -27 -28 -15 4 -19 2 -13 -8 4 -7 2 -16 -5 -20 -26 -16 23 -30 66 -18 21 5 59 12 83 15 57 7 48 -8 -29 -47 -32 -16 -63 -36 -67 -45 -5 -8 -31 -29 -57 -47 -112 -75 -104 -68 -79 -68 12 0 43 11 70 25 28 15 49 22 51 15 2 -5 11 -10 19 -10 9 0 13 6 9 15 -3 9 3 19 14 25 16 9 20 8 20 -5 0 -18 20 -18 74 -2 37 11 38 13 23 29 -16 16 -16 17 2 23 10 3 25 3 33 0 18 -7 162 30 201 51 16 9 30 14 32 12 9 -8 -28 -110 -41 -115 -13 -5 -12 -8 2 -24 14 -15 15 -22 6 -31 -7 -7 -12 -23 -12 -37 -1 -35 -34 -107 -57 -120 -11 -7 -14 -13 -8 -18 20 -14 14 -50 -11 -74 -21 -19 -24 -32 -24 -88 -1 -41 -6 -73 -15 -85 -7 -10 -17 -44 -20 -75 -4 -31 -14 -86 -23 -123 -14 -58 -21 -70 -47 -82 -16 -8 -45 -26 -64 -40 -19 -14 -39 -26 -44 -26 -13 0 -157 -72 -163 -81 -3 -5 -11 -9 -19 -9 -7 0 -36 -14 -63 -30 -42 -27 -61 -33 -118 -39 -6 0 -24 -11 -40 -24 -28 -22 -65 -38 -134 -59 -19 -5 -50 -25 -70 -44 -19 -19 -39 -34 -44 -34 -5 0 -17 -6 -25 -14 -9 -7 -43 -28 -76 -46 -33 -18 -67 -39 -76 -46 -8 -8 -23 -14 -32 -14 -9 0 -19 -5 -23 -12 -11 -17 49 -3 112 27 29 14 62 25 74 25 12 0 40 11 63 24 23 14 62 28 87 32 25 3 59 14 75 23 17 9 50 23 75 30 25 7 54 17 65 22 47 20 106 36 109 30 3 -3 -28 -20 -67 -36 -40 -16 -65 -31 -55 -33 9 -2 33 4 53 12 20 9 41 13 46 10 5 -3 23 4 39 16 17 12 30 18 30 13 0 -4 -59 -42 -130 -83 -111 -64 -147 -90 -125 -90 15 0 148 56 223 94 48 24 110 51 138 60 28 9 60 23 70 31 10 8 23 15 28 15 5 0 -4 -10 -20 -22 -16 -12 -31 -25 -34 -29 -3 -3 -28 -18 -56 -32 -27 -14 -77 -44 -111 -66 -33 -22 -72 -43 -87 -47 -15 -3 -32 -14 -39 -23 -6 -10 -21 -21 -32 -26 -17 -7 -18 -9 -3 -12 9 -2 26 0 36 6 11 6 46 14 78 17 33 4 70 15 84 25 33 23 106 33 117 17 16 -25 52 -39 73 -28 10 5 32 10 49 10 29 0 31 -3 31 -34 0 -19 -4 -36 -9 -38 -5 -1 -11 -17 -14 -34 -3 -17 -11 -42 -19 -55 -14 -25 -17 -47 -6 -64 3 -5 -1 -48 -8 -95 -8 -47 -13 -96 -12 -110 1 -14 -1 -31 -6 -38 -4 -7 -5 -16 -1 -20 11 -11 32 25 39 67 3 21 14 49 25 63 11 13 26 51 35 84 8 32 24 66 36 76 11 9 20 26 20 38 0 26 72 184 89 194 17 11 13 -10 -10 -55 -25 -49 -22 -65 9 -44 13 10 22 27 22 41 0 14 7 32 15 40 8 9 15 24 15 35 0 10 4 19 9 19 5 0 4 -19 -1 -42 -4 -24 -11 -77 -14 -119 -3 -42 -6 -83 -7 -92 -4 -34 18 -16 30 25 6 24 19 62 27 85 9 23 18 62 22 85 8 56 54 152 66 140 6 -6 3 -32 -6 -68 -8 -32 -11 -63 -7 -68 5 -6 5 -20 0 -31 -4 -11 -8 -34 -8 -51 -1 -17 -4 -34 -8 -38 -10 -10 -10 -86 -1 -86 4 0 14 12 22 27 8 16 28 44 45 63 17 19 30 44 29 55 -1 19 78 161 110 198 8 9 20 27 26 40 6 12 21 26 33 32 13 5 28 22 34 37 7 18 19 28 33 28 11 0 46 12 76 26 30 14 79 35 108 46 30 11 52 26 52 34 0 10 8 14 20 12 14 -2 25 5 33 22 10 19 23 27 57 31 82 12 210 69 210 94 0 9 14 17 40 21 22 4 37 10 35 15 -9 14 35 32 49 20 14 -12 121 34 144 62 7 9 27 19 44 22 16 4 38 15 48 25 10 10 40 22 67 26 49 7 122 49 123 71 0 7 16 15 36 19 19 4 38 13 41 20 3 8 9 11 14 8 5 -3 34 6 64 20 29 14 59 26 65 26 19 0 150 54 150 62 0 4 -4 8 -10 8 -5 0 -10 7 -10 16 0 13 6 15 28 9 45 -12 92 -7 120 11 45 30 92 53 125 59 18 4 69 24 113 46 45 21 158 64 250 94 157 51 243 89 231 101 -3 3 -13 1 -24 -5 -49 -26 -213 -74 -213 -62 0 9 114 61 132 61 6 0 19 7 29 16 9 8 46 21 81 29 71 15 201 66 226 89 10 8 61 29 115 46 77 25 98 35 95 48 -5 26 -47 27 -73 2 -13 -12 -28 -19 -34 -15 -6 3 -11 1 -11 -4 0 -6 -17 -11 -38 -11 -21 0 -48 -7 -61 -16 -13 -9 -44 -17 -72 -17 -27 0 -49 -4 -49 -9 0 -4 -13 -8 -29 -8 -17 0 -33 -4 -36 -10 -3 -5 -23 -10 -44 -10 -21 0 -41 -3 -45 -7 -3 -4 -29 -6 -56 -4 -27 1 -82 -7 -125 -19 -54 -15 -80 -19 -88 -11 -12 12 -3 16 56 26 20 3 37 10 37 15 0 6 10 10 23 10 13 0 27 4 32 8 6 5 36 14 67 21 53 11 85 31 72 44 -3 3 -18 1 -33 -4 -14 -6 -41 -12 -59 -15 -18 -2 -46 -11 -62 -19 -16 -8 -35 -12 -44 -9 -9 3 -20 -3 -28 -15 -8 -13 -23 -21 -39 -21 -14 0 -29 -3 -33 -7 -4 -5 -27 -9 -51 -9 -24 -1 -59 -4 -79 -8 -27 -5 -36 -4 -36 7 0 10 20 16 71 21 64 6 93 14 165 48 11 5 45 15 75 23 29 7 45 13 34 14 -11 0 -38 -4 -59 -9 -30 -6 -47 -5 -69 7 -16 8 -37 12 -46 10 -97 -31 -203 -57 -234 -57 -21 0 -54 -7 -74 -15 -19 -8 -45 -15 -57 -15 -20 0 -20 1 4 20 19 15 21 20 9 20 -9 0 -22 -6 -28 -14 -16 -19 -152 -41 -174 -29 -15 9 27 32 57 33 17 0 46 11 65 24 20 12 87 38 149 57 61 19 112 37 112 41 0 24 -205 -17 -394 -78 -191 -62 -354 -122 -375 -138 -8 -6 -32 -16 -55 -22 -23 -6 -98 -37 -168 -68 -70 -30 -155 -63 -190 -73 -35 -9 -65 -20 -68 -23 -3 -4 -39 -22 -80 -41 -41 -19 -82 -41 -91 -50 -10 -10 -31 -20 -49 -24 -18 -4 -41 -16 -51 -26 -17 -17 -59 -27 -59 -14 0 3 9 14 20 25 31 31 26 52 -12 48 -28 -3 -34 -7 -36 -32 -2 -16 -12 -38 -23 -49 -10 -11 -19 -25 -19 -29 0 -5 -4 -7 -8 -4 -4 2 -7 30 -6 61 2 49 6 60 32 83 25 23 33 41 46 112 9 47 19 98 23 113 3 17 15 32 29 37 13 5 24 18 24 28 0 10 11 29 25 42 31 29 34 8 5 -35 -45 -65 -79 -193 -49 -183 13 4 16 12 40 101 7 26 17 47 21 47 4 0 8 7 8 15 0 8 14 38 32 66 26 42 29 55 20 70 -10 16 -7 20 31 29 85 22 106 32 112 51 4 10 11 19 18 19 8 0 8 3 -1 12 -7 7 -12 15 -12 19 0 14 113 41 146 34 18 -3 35 -1 39 5 3 5 15 10 27 10 28 0 98 41 98 58 0 10 8 12 28 8 20 -5 39 1 75 24 34 22 55 28 73 24 27 -7 58 12 47 29 -4 6 2 8 15 5 15 -4 22 -2 22 9 0 11 7 13 28 9 17 -4 35 -1 47 8 11 9 28 16 37 16 10 0 37 11 60 24 24 13 65 27 92 31 27 4 64 18 82 30 18 12 60 32 94 45 35 13 56 26 50 30 -7 4 10 12 37 19 59 15 122 43 123 55 0 7 -30 6 -142 -8 -15 -1 -25 1 -22 6 3 4 16 8 29 8 13 0 39 9 57 19 18 11 74 32 123 47 50 15 92 31 95 35 3 4 18 11 33 14 15 4 27 13 27 21 0 18 -29 18 -49 0 -16 -14 -172 -76 -281 -111 -30 -10 -66 -25 -78 -33 -17 -11 -26 -12 -31 -4 -8 13 -81 5 -81 -10 0 -10 -67 -41 -81 -36 -5 2 53 37 129 78 75 41 156 87 179 102 23 16 59 34 80 42 21 7 56 23 78 35 22 11 45 21 52 21 7 0 13 6 13 14 0 8 22 18 60 26 32 7 67 21 76 31 9 10 22 15 29 13 7 -3 15 2 18 10 8 21 -16 21 -48 0 -14 -9 -31 -14 -39 -11 -8 3 -20 -1 -26 -9 -8 -8 -31 -14 -60 -14 -31 0 -50 -5 -53 -14 -3 -7 -25 -16 -48 -20 -24 -4 -48 -11 -54 -15 -17 -15 -95 -24 -95 -12 0 16 -21 13 -34 -4 -6 -8 -36 -17 -71 -20 l-60 -6 99 50 c111 56 242 96 358 111 43 5 89 17 102 25 14 9 33 16 43 15 32 -4 39 0 39 20 0 24 -10 25 -67 4 -68 -25 -103 -32 -124 -24 -15 5 -6 10 38 20 36 8 54 17 48 23 -5 5 -22 5 -43 -2 -143 -45 -158 -49 -164 -39 -8 13 -87 3 -146 -18 -64 -23 -177 -43 -254 -45 -38 -1 -74 -5 -79 -9 -6 -5 -36 -11 -67 -13 -31 -3 -67 -12 -80 -21 -12 -9 -32 -16 -43 -16 -12 0 -25 -4 -30 -8 -21 -18 -95 -33 -114 -23 -15 8 -27 5 -53 -13 -38 -25 -365 -132 -375 -122 -3 3 1 14 11 25 14 16 15 20 2 30 -10 8 -16 9 -21 1 -17 -28 -42 13 -30 50 4 14 15 20 36 20 16 0 29 -4 29 -10 0 -19 15 -10 33 21 17 31 17 31 -4 26 -15 -4 -19 -2 -15 10 3 8 6 17 6 19 0 2 10 4 23 4 30 0 66 79 42 93 -23 12 -19 40 4 32 11 -3 25 1 33 9 28 28 178 96 211 96 18 0 51 9 72 21 22 12 49 23 60 25 57 10 114 28 146 44 19 10 53 22 75 25 21 4 44 11 49 15 6 4 34 15 63 26 30 10 58 26 63 35 5 10 25 23 44 29 19 6 35 16 35 22 0 6 10 8 24 4 14 -3 27 -2 30 3 3 5 22 12 42 16 20 3 47 13 60 22 13 8 30 13 38 10 8 -3 20 1 26 9 7 8 21 14 31 14 10 0 21 4 24 10 4 6 -6 7 -24 4 -19 -4 -37 -2 -46 6 -11 9 -19 9 -28 2 -7 -6 -44 -19 -82 -29 -46 -11 -62 -19 -47 -21 22 -3 22 -5 6 -16 -23 -17 -78 -6 -82 17 -2 12 1 15 12 11 9 -3 16 -2 16 4 0 5 10 10 23 10 56 0 111 17 150 46 27 20 28 20 61 2 25 -13 38 -15 52 -8 11 6 27 13 36 16 10 3 15 11 12 20 -8 20 10 28 40 16 17 -6 24 -14 20 -25 -3 -8 -3 -15 0 -15 25 0 244 67 340 104 65 25 129 46 142 46 22 0 119 47 154 75 8 7 47 24 85 39 39 15 84 33 100 40 17 8 45 19 62 26 18 7 31 16 28 20 -6 9 -55 0 -155 -28 -41 -12 -139 -30 -217 -41 -78 -12 -162 -25 -185 -30 -73 -15 -158 -23 -158 -14 0 17 58 43 95 43 25 0 35 4 32 13 -4 14 -45 15 -97 3 -30 -7 -33 -7 -22 6 6 8 37 20 67 27 30 7 55 16 55 21 0 11 87 40 121 40 15 0 30 4 34 9 3 5 31 17 63 27 71 21 51 31 -29 14 -33 -7 -62 -11 -65 -8 -2 3 24 11 58 18 82 16 135 37 122 50 -15 15 -194 -36 -211 -60 -7 -10 -20 -17 -28 -14 -8 3 -20 2 -27 -2 -7 -5 -27 -9 -44 -10 -17 0 -48 -11 -70 -24 -21 -13 -45 -25 -53 -27 -9 -1 -28 -4 -42 -7 -15 -2 -36 -9 -49 -16 -12 -6 -24 -9 -27 -6 -11 11 29 45 61 52 17 3 40 14 51 24 11 10 36 21 55 25 19 4 47 19 62 32 15 14 41 27 58 28 18 2 37 8 43 14 18 18 -64 14 -141 -8 -37 -10 -82 -16 -101 -13 -19 2 -64 0 -100 -6 -159 -27 -150 -27 -149 5 0 15 -12 64 -26 108 -28 86 -32 120 -16 130 12 7 8 41 -18 155 -19 86 -19 173 0 198 8 9 5 12 -9 12 -30 0 -57 100 -32 116 6 3 15 1 19 -6 5 -8 10 -2 14 16 5 18 3 30 -6 35 -7 5 -13 29 -14 57 0 32 -9 64 -26 94 -20 36 -25 58 -24 106 2 53 6 64 29 86 l28 26 -30 0 c-29 0 -31 2 -31 39 0 43 20 104 27 84 8 -22 20 -14 26 14 8 44 -32 60 -51 21 l-11 -23 0 23 c-1 16 8 27 29 36 22 9 27 15 19 23 -7 7 -8 19 -4 30 10 23 7 44 -11 64 -32 36 -7 70 66 89 25 7 56 23 70 37 28 29 115 73 143 73 10 0 52 14 94 30 41 17 79 30 84 30 6 0 27 11 47 25 20 14 44 25 53 25 9 0 27 9 40 21 13 11 36 23 51 26 15 3 29 11 32 19 3 8 15 14 26 14 11 0 20 5 20 10 0 17 -39 11 -88 -14 -26 -13 -68 -29 -92 -36 -25 -6 -53 -14 -64 -17 -12 -3 -16 -1 -12 6 4 6 15 11 25 11 9 0 46 17 82 39 35 21 81 44 102 50 20 7 61 27 90 45 l53 31 -50 -1 c-28 0 -67 -4 -86 -8 -35 -7 -35 -7 -10 8 14 9 68 29 120 47 52 17 99 35 105 40 5 5 23 9 40 10 53 1 139 37 123 51 -7 6 -118 -26 -118 -34 0 -4 -16 -8 -36 -8 -20 0 -48 -9 -64 -20 -15 -11 -39 -19 -52 -18 -30 2 -125 -21 -160 -38 -33 -17 -199 -56 -206 -49 -3 3 0 5 6 5 7 0 12 7 12 15 0 8 8 15 18 15 9 0 23 9 30 20 16 26 87 61 106 54 9 -4 18 0 22 10 4 10 18 16 35 16 18 0 32 6 36 16 3 8 12 13 20 10 8 -3 24 4 36 17 25 26 141 73 204 83 37 6 47 3 85 -25 23 -17 50 -31 60 -31 9 0 22 -9 28 -19 6 -12 20 -20 37 -19 16 0 48 -5 73 -11 56 -13 157 -14 196 -2 47 15 144 22 144 11 0 -16 -89 -191 -90 -176 -2 46 -111 -178 -145 -299 -10 -33 -28 -81 -41 -107 -13 -26 -24 -55 -24 -64 0 -8 -6 -14 -12 -12 -22 8 -44 -34 -72 -132 -15 -52 -38 -115 -51 -140 -28 -53 -65 -136 -65 -145 0 -4 -8 -19 -19 -33 -23 -33 -40 -107 -46 -191 -2 -35 -9 -67 -14 -70 -6 -4 -11 -22 -13 -41 -1 -19 -10 -55 -21 -80 -10 -25 -20 -58 -22 -75 -2 -16 -6 -61 -10 -100 -4 -38 -14 -83 -22 -99 -23 -45 -53 -136 -44 -136 4 0 42 69 84 153 42 83 87 163 100 177 25 27 95 139 113 181 8 17 22 28 43 32 17 4 31 13 31 21 0 8 16 37 35 66 19 29 35 58 35 65 0 7 7 15 15 19 8 3 15 11 15 19 0 7 14 23 30 35 17 13 30 29 30 37 0 8 5 15 10 15 17 0 11 -14 -30 -69 -22 -29 -39 -62 -39 -74 1 -12 -3 -35 -9 -52 -6 -16 -18 -52 -27 -80 -28 -81 -30 -99 -12 -92 9 3 17 1 19 -5 7 -19 26 0 33 31 3 16 13 35 21 42 8 6 14 18 14 25 0 8 5 14 10 14 6 0 10 7 10 15 0 22 49 97 60 90 4 -3 11 1 14 7 3 7 4 -10 2 -39 -2 -32 1 -54 8 -57 7 -3 6 -5 -1 -5 -25 -2 -12 -21 13 -21 24 0 26 -3 20 -27 -4 -16 -11 -48 -16 -73 -5 -25 -15 -72 -23 -105 -8 -33 -12 -62 -10 -65 8 -9 33 33 33 54 0 29 21 84 48 129 12 21 22 44 22 52 0 7 16 36 35 65 19 29 35 58 35 65 0 16 38 65 51 65 5 0 9 -7 9 -15 0 -8 4 -15 9 -15 5 0 16 -3 25 -6 17 -6 47 45 64 111 11 38 11 39 -6 19 -9 -11 -25 -31 -35 -45 l-18 -24 6 28 c7 33 52 134 63 141 5 3 14 23 22 45 7 23 19 41 27 41 7 0 13 7 13 17 0 23 51 124 65 130 7 2 21 23 31 46 20 45 42 80 87 138 15 20 27 41 27 47 0 7 5 12 10 12 6 0 10 -4 10 -10 0 -20 15 -9 40 28 13 20 35 47 48 60 19 18 21 26 12 36 -7 10 -8 16 0 21 13 8 13 25 -1 25 -5 0 -16 -15 -24 -34 -18 -42 -41 -61 -30 -25 4 13 18 44 31 69 12 25 30 67 39 94 8 26 28 67 43 90 15 22 32 52 38 66 29 66 40 87 57 110 10 14 24 25 30 25 7 0 18 14 26 30 19 42 108 163 149 205 19 19 43 54 53 76 9 23 33 55 53 70 39 31 45 44 21 44 -21 0 -19 6 21 68 24 35 39 50 44 42 10 -17 47 3 55 30 3 11 13 20 21 20 18 0 18 14 -1 30 -22 18 -18 28 9 23 18 -4 28 3 45 31 13 20 25 36 27 36 11 0 2 -21 -21 -48 -17 -20 -22 -33 -15 -37 14 -9 45 19 72 64 12 20 31 44 42 54 21 19 16 19 -30 0 -14 -5 -15 -3 -5 15 15 27 14 32 -4 32 -24 0 -17 24 15 55 17 16 30 34 30 40 0 12 74 85 86 85 3 0 4 -7 0 -15 -9 -25 28 -18 54 10 19 20 21 28 11 38 -10 9 -15 8 -25 -5 -7 -10 -16 -15 -19 -11 -9 9 12 33 29 33 8 0 14 7 14 16 0 8 15 30 33 48 45 45 87 94 126 144 18 23 37 42 42 42 11 0 -33 -58 -88 -118 -35 -37 -42 -62 -18 -62 8 0 29 23 47 50 18 28 40 53 50 56 9 3 20 14 23 25 4 11 22 34 41 51 38 35 52 67 34 78 -7 5 6 25 39 62 28 31 51 62 51 70 0 8 17 29 38 48 45 43 73 85 77 116 3 31 -15 30 -46 -2 -40 -43 -78 -66 -98 -59 -15 4 -18 11 -13 30 8 26 75 105 90 105 5 0 21 17 36 39 15 21 38 43 53 50 29 13 25 26 -5 17 -16 -5 -80 -60 -127 -108 -61 -63 -90 -87 -97 -80 -5 5 5 39 20 78 27 64 31 69 56 66 20 -3 26 0 21 8 -4 6 -13 9 -21 6 -17 -6 -18 12 -4 50 15 38 5 42 -28 12 -31 -29 -71 -52 -79 -45 -7 8 22 60 46 81 12 11 21 25 21 31 0 7 11 16 24 19 21 5 38 34 41 71 0 6 4 16 8 23 11 17 -14 15 -41 -4 -12 -8 -22 -12 -22 -9 0 12 99 151 124 174 24 23 25 26 10 42 -15 16 -10 23 70 101 47 46 86 87 86 91 0 12 -19 7 -27 -7z m-253 -250 c0 -3 -4 -8 -10 -11 -5 -3 -10 -1 -10 4 0 6 5 11 10 11 6 0 10 -2 10 -4z m13 -201 c-3 -9 -8 -14 -10 -11 -3 3 -2 9 2 15 9 16 15 13 8 -4z m-2 -498 c-10 -9 -11 -8 -5 6 3 10 9 15 12 12 3 -3 0 -11 -7 -18z m-3461 -81 c0 -3 -4 -8 -10 -11 -5 -3 -10 -1 -10 4 0 6 5 11 10 11 6 0 10 -2 10 -4z m3360 -86 c0 -5 -2 -10 -4 -10 -3 0 -8 5 -11 10 -3 6 -1 10 4 10 6 0 11 -4 11 -10z m-1960 -173 c0 -8 -3 -17 -7 -21 -4 -3 -8 -14 -10 -24 -18 -116 -36 -160 -32 -82 3 70 21 140 36 140 7 0 13 -6 13 -13z m-1600 -91 c0 -3 -4 -8 -10 -11 -5 -3 -10 -1 -10 4 0 6 5 11 10 11 6 0 10 -2 10 -4z m1605 -202 c18 -43 19 -54 5 -54 -14 0 -39 60 -33 77 8 19 11 16 28 -23z m1479 -86 c-24 -41 -58 -77 -66 -72 -6 4 3 19 21 36 17 16 31 33 31 39 0 5 5 9 11 9 5 0 7 -6 3 -12z m-1457 -49 c15 -29 18 -112 3 -89 -5 8 -7 22 -5 31 3 9 -4 26 -15 39 -22 26 -27 54 -7 48 6 -3 18 -15 24 -29z m-47 -34 c0 -21 -6 -16 -31 28 -9 16 -8 17 10 5 12 -7 21 -22 21 -33z m-15 -72 c3 -13 3 -23 -2 -23 -9 1 -63 83 -63 96 0 15 58 -50 65 -73z m-1423 10 c-5 -27 -5 -27 -14 -4 -8 24 -2 45 11 36 5 -2 6 -17 3 -32z m2644 -155 c-3 -23 -38 -68 -52 -68 -12 0 -12 4 -2 23 28 48 59 75 54 45z m-111 -159 c-4 -6 1 -17 11 -24 17 -13 17 -14 2 -15 -9 0 -19 -6 -21 -12 -3 -7 -6 -3 -6 10 -1 12 -7 22 -13 22 -8 0 -5 7 6 15 23 18 30 19 21 4z m-1567 -68 c3 -8 -1 -12 -9 -9 -7 2 -15 10 -17 17 -3 8 1 12 9 9 7 -2 15 -10 17 -17z m9 -57 c1 -18 0 -22 -4 -9 -3 11 -10 26 -17 34 -9 11 -8 13 4 9 8 -2 16 -18 17 -34z m-4632 -154 c-3 -5 -15 -10 -25 -10 -10 0 -22 5 -25 10 -4 6 7 10 25 10 18 0 29 -4 25 -10z m4869 -9 c4 -5 -3 -7 -14 -4 -23 6 -26 13 -6 13 8 0 17 -4 20 -9z m-4737 -7 c-3 -3 -12 -4 -19 -1 -8 3 -5 6 6 6 11 1 17 -2 13 -5z m3523 -43 c11 -21 3 -54 -11 -45 -5 3 -6 16 -3 29 4 17 1 24 -13 28 -16 4 -16 5 -1 6 10 0 22 -8 28 -18z m1378 12 c-16 -2 -40 -2 -55 0 -16 2 -3 4 27 4 30 0 43 -2 28 -4z m-5488 -13 c0 -5 -4 -10 -9 -10 -6 0 -13 5 -16 10 -3 6 1 10 9 10 9 0 16 -4 16 -10z m1530 -40 c8 -5 11 -10 5 -10 -5 0 -17 5 -25 10 -8 5 -10 10 -5 10 6 0 17 -5 25 -10z m1906 -105 c-2 -5 0 -19 4 -30 5 -14 0 -25 -17 -38 -28 -23 -30 -37 -3 -37 21 0 27 -15 10 -25 -14 -9 -12 -43 3 -48 9 -3 9 -9 1 -28 -6 -13 -16 -35 -21 -49 -8 -20 -30 -32 -104 -59 -52 -18 -116 -44 -143 -57 -50 -24 -80 -20 -54 7 8 8 20 30 28 49 8 19 23 43 35 52 15 12 17 20 9 28 -11 11 -17 6 -73 -69 -11 -16 -22 -21 -31 -16 -9 6 -2 18 28 45 22 21 38 40 36 43 -9 8 97 188 107 182 5 -4 9 -13 9 -21 0 -8 5 -14 10 -14 6 0 10 4 10 9 0 5 14 14 30 20 18 6 30 17 30 28 0 10 15 32 32 50 l33 31 17 -21 c10 -12 16 -26 14 -32z m1327 -32 c-7 -2 -19 -2 -25 0 -7 3 -2 5 12 5 14 0 19 -2 13 -5z m-6085 -43 c-14 -21 -38 -35 -38 -21 0 7 37 38 48 40 1 1 -3 -8 -10 -19z m5717 -16 c-25 -19 -150 -57 -167 -51 -7 2 30 18 82 35 110 36 112 36 85 16z m-2776 -33 c14 -9 10 -19 -15 -51 -7 -8 -36 -46 -64 -85 -45 -62 -110 -120 -110 -100 0 18 43 74 93 123 38 36 57 63 61 87 7 37 12 40 35 26z m4191 -36 c0 -8 -4 -15 -9 -15 -13 0 -22 16 -14 24 11 11 23 6 23 -9z m-2695 -27 c-10 -32 -34 -68 -45 -68 -14 0 -12 13 5 36 8 10 15 27 15 37 0 9 7 17 16 17 11 0 14 -6 9 -22z m-4565 8 c0 -3 -4 -8 -10 -11 -5 -3 -10 -1 -10 4 0 6 5 11 10 11 6 0 10 -2 10 -4z m7416 -23 c-10 -10 -19 5 -10 18 6 11 8 11 12 0 2 -7 1 -15 -2 -18z m-1391 -8 c-30 -25 -72 -35 -60 -15 7 11 63 38 80 39 6 0 -3 -11 -20 -24z m-3899 -15 c5 -5 38 -11 73 -14 35 -2 67 -8 73 -14 12 -12 -21 -69 -44 -75 -10 -3 -22 -16 -27 -30 -6 -14 -23 -29 -40 -35 -17 -6 -31 -16 -31 -21 0 -6 -6 -11 -14 -11 -8 0 -36 -18 -61 -40 -25 -22 -51 -40 -56 -40 -15 0 -119 -72 -119 -82 0 -5 -13 -14 -30 -19 -16 -6 -30 -15 -30 -20 0 -5 -6 -9 -13 -9 -12 0 -26 -9 -74 -50 -7 -5 -17 -10 -22 -10 -5 0 -31 -18 -57 -41 -53 -46 -149 -97 -161 -85 -4 4 -1 13 8 19 21 16 33 64 16 70 -8 4 -5 11 10 24 22 18 46 87 35 98 -4 4 1 11 11 16 9 6 17 17 17 25 0 25 -72 -22 -90 -58 -8 -17 -20 -33 -26 -35 -18 -6 1 88 28 138 14 26 30 61 36 78 6 17 18 31 26 31 21 0 20 -18 -4 -65 -27 -52 -26 -63 6 -57 21 4 25 9 19 29 -4 19 -1 26 15 30 12 3 19 11 16 18 -2 7 2 21 9 32 8 10 15 30 15 45 0 15 6 31 14 35 8 4 16 19 18 33 2 14 7 30 10 36 9 13 108 29 278 45 69 6 127 13 129 15 8 7 27 4 37 -6z m-1751 -91 c-42 -19 -86 -26 -69 -10 10 10 71 29 94 29 8 0 -3 -8 -25 -19z m1218 14 c-7 -2 -15 -20 -19 -39 -3 -19 -12 -34 -20 -34 -17 0 -17 5 -2 47 8 23 18 33 33 32 11 0 15 -3 8 -6z m6132 -23 c0 -13 -6 -25 -12 -27 -9 -3 -13 6 -13 27 0 21 4 30 13 28 6 -3 12 -15 12 -28z m-5036 -62 c-18 -24 -45 -53 -60 -65 -26 -22 -27 -22 -22 -3 3 12 18 27 34 36 16 8 29 20 29 26 0 14 30 48 42 48 5 0 -6 -19 -23 -42z m173 -22 c-17 -22 -21 -24 -26 -10 -8 21 23 59 37 45 6 -6 2 -19 -11 -35z m1623 -16 c-3 -5 -15 -10 -26 -10 -10 0 -19 5 -19 10 0 6 12 10 26 10 14 0 23 -4 19 -10z m-1673 -22 c14 1 15 -3 6 -23 -11 -24 -60 -41 -66 -24 -3 6 -10 5 -18 -2 -8 -7 -17 -9 -21 -6 -3 4 7 12 23 19 39 16 39 15 23 34 -13 16 -12 17 11 10 14 -4 33 -8 42 -8z m-254 -68 c-7 -11 -18 -20 -25 -20 -7 0 -13 -5 -13 -10 0 -12 -109 -84 -117 -77 -2 3 8 13 24 23 15 10 50 38 77 61 52 46 74 55 54 23z m3022 -25 c0 -8 -2 -15 -4 -15 -2 0 -6 7 -10 15 -3 8 -1 15 4 15 6 0 10 -7 10 -15z m-2870 -25 c0 -5 -7 -10 -16 -10 -8 0 -12 5 -9 10 3 6 10 10 16 10 5 0 9 -4 9 -10z m4460 -84 c0 -3 -4 -8 -10 -11 -5 -3 -10 -1 -10 4 0 6 5 11 10 11 6 0 10 -2 10 -4z m-37 -66 c-3 -11 -12 -20 -19 -20 -12 0 -12 4 -2 20 7 11 16 20 19 20 4 0 5 -9 2 -20z m-5657 -29 c-9 -10 -16 -27 -16 -38 0 -12 -7 -24 -16 -27 -22 -9 -61 -7 -48 2 6 4 14 17 18 30 4 13 15 22 27 22 10 0 19 5 19 10 0 16 24 40 29 28 1 -5 -4 -17 -13 -27z m3275 0 c-21 -18 -88 -37 -98 -28 -2 3 13 10 34 17 21 7 42 16 48 21 5 5 16 9 24 9 10 0 7 -6 -8 -19z m-2515 -6 c-26 -19 -42 -19 -26 0 7 8 20 15 29 15 13 -1 13 -3 -3 -15z m194 -15 c8 -15 8 -18 -4 -14 -7 3 -29 -9 -47 -26 -41 -38 -86 -63 -93 -52 -3 5 3 15 12 23 27 23 115 89 118 89 2 0 8 -9 14 -20z m4671 -7 c-10 -20 -24 -54 -25 -65 -1 -4 -7 -13 -13 -19 -7 -7 -13 -19 -13 -26 0 -7 -7 -13 -15 -13 -13 0 -10 10 11 48 14 26 26 49 27 52 0 3 7 15 15 28 17 26 28 23 13 -5z m-2701 -108 c0 -1 -9 -5 -20 -8 -12 -3 -20 0 -20 8 0 8 8 11 20 8 11 -3 20 -7 20 -8z m-3000 -4 c0 -12 -29 -35 -36 -28 -11 10 5 37 21 37 8 0 15 -4 15 -9z m5750 -41 c0 -5 -2 -10 -4 -10 -3 0 -8 5 -11 10 -3 6 -1 10 4 10 6 0 11 -4 11 -10z m-63 -52 c-3 -8 -6 -5 -6 6 -1 11 2 17 5 13 3 -3 4 -12 1 -19z m226 -3 c-3 -9 -8 -14 -10 -11 -3 3 -2 9 2 15 9 16 15 13 8 -4z m-233 -23 c0 -5 -7 -17 -16 -28 -8 -10 -14 -14 -11 -9 2 6 7 18 10 28 7 17 17 23 17 9z m-3240 -32 c0 -20 -24 -60 -37 -60 -16 0 -17 11 -1 45 11 24 38 35 38 15z m-4235 -30 c-3 -5 -13 -10 -21 -10 -8 0 -14 5 -14 10 0 6 9 10 21 10 11 0 17 -4 14 -10z m-35 -60 c0 -5 -7 -10 -15 -10 -8 0 -15 5 -15 10 0 6 7 10 15 10 8 0 15 -4 15 -10z m5765 -60 c3 -5 1 -10 -4 -10 -6 0 -11 5 -11 10 0 6 2 10 4 10 3 0 8 -4 11 -10z m-1625 -60 c0 -5 -4 -10 -10 -10 -5 0 -10 5 -10 10 0 6 5 10 10 10 6 0 10 -4 10 -10z m-25 -60 c-3 -5 -11 -10 -16 -10 -6 0 -7 5 -4 10 3 6 11 10 16 10 6 0 7 -4 4 -10z m-4389 -31 c3 -6 1 -15 -7 -19 -10 -7 -10 -12 1 -25 12 -15 12 -19 -5 -31 -10 -8 -26 -14 -34 -14 -11 0 -12 -3 -4 -11 15 -15 6 -38 -25 -67 -33 -31 -41 -19 -12 20 22 30 22 31 2 26 -13 -4 -23 0 -27 9 -8 23 14 43 49 43 26 1 28 2 13 11 -16 10 -16 12 3 40 23 31 35 36 46 18z m4364 -29 c-6 -11 -7 -20 -3 -20 4 0 2 -5 -5 -12 -9 -9 -15 -9 -24 1 -11 10 -8 16 11 32 30 24 34 24 21 -1z m1719 -61 c6 -18 10 -53 10 -78 -1 -25 -4 -36 -6 -24 -2 13 -14 29 -25 37 -19 13 -20 18 -8 45 6 16 9 35 5 40 -3 6 -2 11 3 11 6 0 15 -14 21 -31z m-6216 -37 c3 -4 -6 -21 -19 -37 -25 -32 -32 -22 -12 20 11 25 23 32 31 17z m4477 -12 c0 -5 -4 -10 -8 -10 -5 0 -14 -12 -21 -27 -9 -20 -14 -24 -21 -13 -12 19 10 60 32 60 10 0 18 -4 18 -10z m1534 -16 c10 -25 7 -102 -4 -109 -5 -3 -11 -3 -11 2 -1 4 -3 17 -5 28 -11 66 -10 95 1 95 7 0 16 -7 19 -16z m-4047 -19 c-4 -8 -2 -17 2 -19 12 -8 -12 -76 -26 -76 -7 0 -13 7 -13 15 0 26 24 95 34 95 4 0 6 -7 3 -15z m4104 -18 c-1 -12 -15 -9 -19 4 -3 6 1 10 8 8 6 -3 11 -8 11 -12z m-2293 -9 c-5 -15 -48 -24 -48 -10 0 14 12 22 33 22 10 0 17 -5 15 -12z m647 -8 c3 -5 2 -10 -2 -10 -5 0 -9 -24 -8 -52 1 -29 -4 -61 -11 -72 -9 -13 -10 -26 -3 -44 7 -17 5 -37 -5 -66 -8 -23 -17 -53 -20 -68 -7 -31 -23 -35 -52 -13 -10 8 -28 15 -38 15 -10 0 -34 16 -53 35 -19 19 -40 35 -48 35 -8 0 -15 5 -15 10 0 6 9 10 20 10 11 0 20 5 20 10 0 6 -7 10 -15 10 -8 0 -15 6 -15 13 1 22 27 47 50 47 18 0 20 -3 11 -14 -14 -16 -4 -66 12 -66 16 0 47 31 47 47 0 7 6 16 14 19 8 3 17 17 20 30 4 14 17 29 29 34 17 7 18 9 5 9 -24 1 -23 27 2 48 11 10 20 23 20 30 0 15 26 17 35 3z m1863 -26 c-10 -10 -28 6 -28 24 0 15 1 15 17 -1 9 -9 14 -19 11 -23z m-6378 -21 c0 -16 -16 -30 -37 -37 -19 -6 -23 -3 -23 12 0 11 6 23 13 25 19 8 47 8 47 0z m2111 -29 c11 -14 10 -15 -11 -12 -13 1 -25 9 -28 16 -5 17 23 15 39 -4z m-108 -96 c-6 -31 -18 -47 -35 -48 -12 0 -10 25 4 55 17 38 39 33 31 -7z m117 17 c10 -12 7 -23 -16 -60 -17 -25 -37 -45 -46 -45 -24 0 -23 5 7 44 14 18 25 43 25 54 0 25 12 28 30 7z m-2140 -10 c0 -8 -4 -15 -9 -15 -13 0 -22 16 -14 24 11 11 23 6 23 -9z m3665 -5 c3 -5 -1 -10 -9 -10 -9 0 -16 5 -16 10 0 6 4 10 9 10 6 0 13 -4 16 -10z m165 -46 c0 -17 -36 -19 -46 -3 -8 14 14 29 33 22 7 -3 13 -11 13 -19z m-47 -11 c4 -2 7 -9 7 -16 0 -8 -3 -8 -12 1 -7 7 -20 12 -29 12 -10 0 -21 5 -24 10 -6 10 37 4 58 -7z m-1993 2 c0 -9 -25 -50 -35 -57 -5 -4 -17 -7 -25 -7 -9 0 -7 4 7 11 12 6 24 21 27 34 5 20 26 35 26 19z m-790 -45 c-27 -21 -45 -26 -35 -9 6 9 41 27 55 28 3 0 -6 -8 -20 -19z m970 -20 c0 -5 -7 -10 -16 -10 -8 0 -12 5 -9 10 3 6 10 10 16 10 5 0 9 -4 9 -10z m1895 -20 c3 -5 1 -10 -4 -10 -6 0 -11 5 -11 10 0 6 2 10 4 10 3 0 8 -4 11 -10z m-2150 -57 c-4 -10 -10 -26 -12 -35 -7 -23 -33 -23 -33 -1 0 18 28 53 43 53 5 0 6 -8 2 -17z m37 -25 c-9 -9 -12 -7 -12 12 0 19 3 21 12 12 9 -9 9 -15 0 -24z m4918 -208 c0 -5 -2 -10 -4 -10 -3 0 -8 5 -11 10 -3 6 -1 10 4 10 6 0 11 -4 11 -10z m125 -70 c-3 -5 -10 -10 -16 -10 -5 0 -9 5 -9 10 0 6 7 10 16 10 8 0 12 -4 9 -10z m-7258 -30 c-7 -18 -19 -30 -30 -30 -19 0 -16 10 11 43 23 26 32 20 19 -13z m7141 -6 c-9 -9 -38 -20 -64 -25 -27 -5 -62 -18 -77 -30 -22 -16 -31 -18 -42 -9 -8 6 -11 18 -9 25 6 15 96 39 137 37 15 -1 27 2 27 8 0 5 10 10 22 10 20 0 21 -1 6 -16z m-5138 -58 c0 -11 -19 -15 -25 -6 -3 5 1 10 9 10 9 0 16 -2 16 -4z m4880 -46 c-8 -5 -24 -10 -35 -10 -17 0 -17 2 -5 10 8 5 24 10 35 10 17 0 17 -2 5 -10z m-7136 -56 c25 -9 19 -24 -9 -24 -24 0 -32 10 -18 23 8 8 8 8 27 1z m5716 -58 c0 -3 -4 -8 -10 -11 -5 -3 -10 -1 -10 4 0 6 5 11 10 11 6 0 10 -2 10 -4z m448 -58 c-2 -17 -11 -24 -33 -26 l-30 -4 24 26 c30 32 43 33 39 4z m805 3 c-2 -6 6 -11 17 -11 35 0 21 -19 -22 -30 -24 -7 -64 -21 -91 -33 -42 -19 -45 -23 -25 -28 25 -6 -74 -32 -166 -44 -51 -7 -58 7 -9 19 16 4 64 24 108 45 44 21 92 41 108 45 15 3 27 13 27 21 0 16 30 36 45 31 6 -2 9 -9 8 -15z m-7011 -42 c-11 -28 -52 -68 -52 -50 0 25 42 93 51 84 6 -6 6 -19 1 -34z m-58 -84 c-6 -16 -24 -21 -24 -7 0 11 11 22 21 22 5 0 6 -7 3 -15z m1871 -5 c3 -5 -1 -10 -9 -10 -8 0 -18 5 -21 10 -3 6 1 10 9 10 8 0 18 -4 21 -10z m4822 -46 c-3 -3 -12 -4 -19 -1 -8 3 -5 6 6 6 11 1 17 -2 13 -5z m-6777 -41 c-5 -10 -20 -31 -33 -46 -21 -25 -25 -26 -37 -13 -10 13 -10 16 4 16 9 0 16 5 16 11 0 11 40 48 53 49 4 0 3 -8 -3 -17z m3430 -39 c-18 -21 -24 -10 -8 15 7 12 14 17 16 11 2 -6 -2 -17 -8 -26z m3230 21 c0 -9 -9 -15 -25 -15 -29 0 -34 16 -7 23 30 8 32 7 32 -8z m-6750 -79 c0 -7 -13 -30 -30 -51 -35 -45 -37 -42 -10 19 20 44 40 61 40 32z m-383 -67 c-17 -28 -24 -23 -19 11 3 24 7 28 18 19 10 -8 11 -15 1 -30z m5852 -150 c-22 -14 -33 -10 -19 6 7 8 17 12 22 9 6 -4 5 -10 -3 -15z m-1128 -45 c-18 -8 -38 -13 -45 -11 -6 3 5 9 24 15 50 15 60 13 21 -4z m209 1 c-33 -19 -50 -18 -26 0 11 8 27 15 35 15 10 -1 7 -6 -9 -15z m560 -5 c-20 -13 -33 -13 -25 0 3 6 14 10 23 10 15 0 15 -2 2 -10z m-977 -60 c-3 -11 -9 -20 -14 -20 -10 0 -12 24 -2 33 13 13 21 7 16 -13z m-60 -30 c-14 -15 -83 -23 -83 -11 0 6 13 11 29 11 17 0 33 5 36 10 4 6 11 7 17 4 5 -3 6 -10 1 -14z m-61 -295 c0 -5 -5 -11 -11 -13 -6 -2 -11 4 -11 13 0 9 5 15 11 13 6 -2 11 -8 11 -13z m-68 -21 c25 -10 19 -34 -9 -34 -24 0 -34 18 -18 33 8 8 8 8 27 1z m2861 -109 c-57 -35 -65 -38 -72 -31 -10 10 18 36 51 45 55 16 62 11 21 -14z m-2871 -10 c-6 -16 -44 -21 -44 -7 0 14 12 22 31 22 12 0 16 -5 13 -15z m-21 -110 c-19 -15 -53 -20 -53 -8 0 3 7 15 16 24 13 14 21 16 36 8 19 -10 19 -11 1 -24z m-13 -39 c0 -2 -3 -11 -6 -20 -9 -23 -34 -20 -34 4 0 13 7 20 20 20 11 0 20 -2 20 -4z m-10 -71 c13 -16 6 -35 -15 -35 -18 0 -28 17 -21 35 7 19 20 19 36 0z m2270 -109 c0 -9 -8 -12 -26 -8 -19 3 -22 7 -12 13 20 13 38 11 38 -5z m-40 -36 c0 -5 -7 -10 -15 -10 -8 0 -15 5 -15 10 0 6 7 10 15 10 8 0 15 -4 15 -10z m-2261 -80 c-11 -30 -23 -63 -26 -72 -6 -19 -23 -25 -23 -8 0 6 4 18 10 28 5 9 18 39 30 66 27 65 34 55 9 -14z m2211 39 c0 -5 -7 -9 -15 -9 -15 0 -20 12 -9 23 8 8 24 -1 24 -14z m2190 -29 c-20 -13 -33 -13 -25 0 3 6 14 10 23 10 15 0 15 -2 2 -10z m-720 -50 c0 -5 -17 -12 -37 -15 -21 -3 -50 -8 -65 -10 -20 -3 -28 0 -28 10 0 9 15 15 48 18 26 2 55 4 65 5 9 1 17 -2 17 -8z m197 4 c-3 -3 -12 -4 -19 -1 -8 3 -5 6 6 6 11 1 17 -2 13 -5z m-372 -63 c7 -12 -12 -24 -25 -16 -11 7 -4 25 10 25 5 0 11 -4 15 -9z m190 -11 c-3 -5 -12 -7 -20 -3 -21 7 -19 13 6 13 11 0 18 -4 14 -10z m-65 -10 c0 -5 -4 -10 -10 -10 -5 0 -10 5 -10 10 0 6 5 10 10 10 6 0 10 -4 10 -10z m340 -80 c-8 -5 -22 -10 -30 -10 -13 0 -13 1 0 10 8 5 22 10 30 10 13 0 13 -1 0 -10z m-4085 -10 c3 -5 1 -10 -4 -10 -6 0 -11 5 -11 10 0 6 2 10 4 10 3 0 8 -4 11 -10z m2200 -60 c-3 -5 -10 -10 -16 -10 -5 0 -9 5 -9 10 0 6 7 10 16 10 8 0 12 -4 9 -10z m-2351 -60 c15 -14 -2 -28 -29 -22 -16 3 -25 11 -25 24 0 15 5 18 23 13 12 -4 26 -11 31 -15z m88 5 c0 -5 -5 -11 -11 -13 -6 -2 -11 4 -11 13 0 9 5 15 11 13 6 -2 11 -8 11 -13z m3718 -24 c0 -17 -81 -51 -122 -51 -35 0 -39 2 -28 15 23 27 150 58 150 36z m-185 -51 c3 -5 1 -10 -4 -10 -6 0 -11 5 -11 10 0 6 2 10 4 10 3 0 8 -4 11 -10z m-64 -65 c-43 -19 -60 -19 -35 0 10 8 30 14 44 14 23 0 22 -1 -9 -14z m-1306 -35 c3 -5 2 -10 -4 -10 -5 0 -13 5 -16 10 -3 6 -2 10 4 10 5 0 13 -4 16 -10z m78 -10 c-3 -11 -9 -20 -14 -20 -14 0 -11 28 4 33 6 3 13 6 14 6 0 1 -1 -8 -4 -19z m982 -73 c-16 -7 -59 -29 -95 -49 -86 -49 -269 -128 -275 -119 -5 9 45 48 80 61 36 14 31 31 -7 23 -22 -4 -29 -3 -24 6 8 12 101 62 107 57 2 -2 21 -6 41 -10 29 -5 40 -3 55 13 21 22 43 29 103 29 45 0 45 0 15 -11z m-1115 -52 c0 -8 -2 -15 -4 -15 -2 0 -6 7 -10 15 -3 8 -1 15 4 15 6 0 10 -7 10 -15z m-2613 -22 c2 -6 -3 -13 -12 -16 -10 -5 -15 0 -15 14 0 21 21 22 27 2z m3378 -11 c-2 -3 -12 -1 -22 2 -15 6 -15 9 -3 16 13 8 35 -8 25 -18z m-50 -31 c-14 -14 -186 -98 -209 -103 -10 -1 -21 3 -23 10 -3 6 0 12 6 12 18 0 161 73 161 82 0 4 17 8 37 8 23 0 33 -4 28 -9z m-291 -176 c-19 -14 -19 -14 1 -15 l20 -1 -20 -9 c-26 -11 -28 -11 -43 -2 -22 15 -2 42 31 42 29 0 30 -1 11 -15z m-298 -150 c-22 -17 -36 -19 -36 -7 0 14 12 22 34 22 21 -1 21 -1 2 -15z m-2842 -110 c3 -9 0 -15 -9 -15 -8 0 -15 7 -15 15 0 8 4 15 9 15 5 0 11 -7 15 -15z m-85 -187 c-7 -21 -16 -38 -20 -38 -4 0 -3 14 3 31 8 24 8 37 -1 50 -15 25 -14 39 4 39 8 0 16 8 17 18 1 9 3 -1 5 -23 3 -22 -1 -57 -8 -77z m80 93 c12 -8 12 -12 2 -25 -19 -23 -31 -20 -31 9 0 27 6 30 29 16z m2521 -71 c0 -5 -4 -10 -10 -10 -5 0 -10 5 -10 10 0 6 5 10 10 10 6 0 10 -4 10 -10z m-2549 -67 c-9 -15 -10 -12 -11 18 0 20 3 39 8 43 11 12 14 -42 3 -61z m1999 33 c0 -3 -4 -8 -10 -11 -5 -3 -10 -1 -10 4 0 6 5 11 10 11 6 0 10 -2 10 -4z m-2066 -97 c-3 -5 -10 -7 -15 -3 -5 3 -7 10 -3 15 3 5 10 7 15 3 5 -3 7 -10 3 -15z m426 -204 c0 -8 -4 -15 -10 -15 -5 0 -7 7 -4 15 4 8 8 15 10 15 2 0 4 -7 4 -15z m-20 -75 c0 -5 -2 -10 -4 -10 -3 0 -8 5 -11 10 -3 6 -1 10 4 10 6 0 11 -4 11 -10z m-22 -78 c2 -7 -3 -12 -12 -12 -9 0 -16 7 -16 16 0 17 22 14 28 -4z"/>
<path d="M9530 8906 c-13 -15 -20 -32 -17 -40 10 -25 22 -19 51 24 24 36 24 40 8 40 -10 0 -29 -11 -42 -24z"/>
<path d="M9600 4311 c-17 -5 -21 -9 -13 -14 12 -7 53 7 53 18 0 6 -7 5 -40 -4z"/>
<path d="M14007 11314 c-8 -8 1 -24 14 -24 5 0 9 7 9 15 0 15 -12 20 -23 9z"/>
<path d="M10579 10863 c-1 -5 -1 -11 0 -15 0 -3 -6 -28 -14 -55 -8 -26 -15 -59 -15 -72 0 -14 -7 -33 -17 -43 -15 -17 -15 -18 5 -18 33 0 34 4 46 140 1 19 6 43 10 53 5 10 4 17 -3 17 -6 0 -12 -3 -12 -7z"/>
<path d="M10531 10587 c-5 -13 -6 -39 -1 -58 9 -39 11 -33 15 34 3 52 -1 59 -14 24z"/>
<path d="M10206 10501 c-3 -5 1 -11 9 -15 9 -3 15 0 15 9 0 16 -16 20 -24 6z"/>
<path d="M13523 10142 c-13 -2 -23 -9 -23 -17 0 -7 -6 -15 -12 -18 -8 -2 -9 -8 -4 -13 5 -5 11 -4 13 4 3 6 10 12 18 12 12 0 41 28 34 33 -2 2 -14 1 -26 -1z"/>
<path d="M13200 9705 c0 -8 2 -15 4 -15 2 0 6 7 10 15 3 8 1 15 -4 15 -6 0 -10 -7 -10 -15z"/>
<path d="M6523 9638 c2 -7 0 -23 -4 -35 -7 -19 -5 -23 12 -23 16 0 19 4 14 20 -4 12 -1 27 5 35 10 12 9 15 -10 15 -13 0 -20 -5 -17 -12z"/>
<path d="M13137 9584 c-4 -4 -7 -17 -7 -28 1 -19 1 -20 11 -3 11 19 8 43 -4 31z"/>
<path d="M12967 9397 c-4 -10 -7 -27 -7 -36 0 -10 -9 -26 -21 -37 -22 -20 -59 -85 -59 -104 0 -16 56 16 64 36 4 10 2 22 -3 27 -6 6 -1 23 16 47 14 22 23 49 21 62 -3 20 -4 21 -11 5z"/>
<path d="M12976 9323 c-6 -14 -5 -15 5 -6 7 7 10 15 7 18 -3 3 -9 -2 -12 -12z"/>
<path d="M12827 9194 c-11 -11 -8 -42 4 -50 15 -9 38 14 23 24 -6 4 -13 13 -15 20 -3 7 -8 10 -12 6z"/>
<path d="M12796 9051 c-10 -11 -16 -26 -14 -33 3 -8 11 -2 23 15 21 33 15 45 -9 18z"/>
<path d="M17849 9038 c-1 -7 -1 -17 0 -22 1 -4 -1 -17 -5 -28 -6 -19 -7 -18 -35 8 -16 16 -40 29 -52 29 -41 0 -137 -59 -137 -85 0 -6 -15 -26 -34 -43 -18 -18 -36 -41 -40 -52 -3 -12 -21 -37 -39 -56 -18 -19 -44 -56 -56 -82 -21 -43 -52 -74 -106 -103 -12 -6 -24 -28 -30 -53 -7 -35 -14 -43 -36 -48 -20 -4 -32 -16 -45 -47 -10 -22 -33 -58 -51 -79 -18 -20 -33 -43 -33 -50 0 -8 -11 -19 -25 -25 -14 -7 -32 -28 -41 -51 -9 -23 -30 -50 -50 -63 -19 -13 -36 -30 -39 -38 -3 -9 -23 -31 -45 -49 -22 -18 -40 -41 -40 -51 0 -10 -19 -33 -42 -52 -24 -18 -66 -55 -95 -83 -29 -27 -74 -68 -102 -90 -27 -22 -50 -45 -50 -52 -1 -6 -9 -14 -19 -17 -11 -4 -25 -17 -32 -31 -7 -14 -21 -27 -31 -30 -9 -3 -20 -12 -23 -20 -3 -8 -11 -15 -19 -15 -7 0 -21 -13 -30 -30 -10 -16 -26 -30 -35 -29 -10 0 -12 3 -4 6 21 8 14 17 -33 43 -25 14 -45 30 -45 37 0 6 -12 13 -27 15 -16 2 -27 8 -25 16 4 23 -38 94 -53 88 -9 -3 -24 12 -41 42 -15 26 -38 55 -52 66 -13 10 -34 36 -48 57 -13 22 -29 39 -34 39 -18 0 -11 -31 15 -64 27 -36 30 -46 15 -46 -13 0 -60 94 -60 119 0 23 -73 89 -104 93 -15 2 -22 11 -24 34 -2 22 -11 35 -28 42 -13 7 -24 17 -24 23 0 6 -9 9 -20 6 -14 -3 -21 1 -26 17 -7 22 -41 56 -56 56 -5 0 -19 9 -30 20 -17 16 -19 23 -10 32 18 18 15 28 -7 28 -11 0 -26 8 -33 18 -7 11 -18 21 -25 23 -17 6 -133 119 -133 130 0 5 -5 9 -10 9 -6 0 -46 36 -88 80 -43 44 -83 80 -90 80 -15 0 -2 -29 22 -50 9 -7 16 -18 16 -25 0 -6 9 -20 20 -30 24 -22 26 -55 4 -55 -11 0 -14 -5 -9 -17 13 -31 11 -45 -8 -57 -15 -9 -21 -7 -31 7 -7 9 -18 17 -24 17 -6 0 -19 13 -28 30 -17 28 -66 55 -78 43 -3 -4 -6 1 -6 10 0 9 -16 31 -35 50 -19 19 -35 41 -35 51 0 10 -8 16 -21 16 -24 0 -21 -15 22 -104 16 -32 29 -64 29 -72 0 -8 5 -14 10 -14 6 0 10 -7 10 -16 0 -9 9 -18 20 -21 23 -6 27 -41 6 -49 -11 -4 -8 -11 9 -28 13 -13 33 -42 44 -65 17 -33 19 -41 7 -41 -8 0 -22 10 -31 23 -47 67 -85 128 -85 135 0 5 -11 19 -24 31 -17 16 -31 21 -45 16 -15 -5 -21 -2 -21 9 0 9 -8 16 -18 16 -18 0 -120 79 -134 105 -5 8 -14 15 -21 15 -14 0 -53 47 -129 155 -58 82 -98 119 -98 91 0 -8 4 -17 9 -20 5 -4 28 -43 51 -89 52 -104 59 -115 91 -154 15 -17 36 -56 47 -86 35 -93 90 -187 147 -251 82 -92 90 -105 71 -112 -24 -9 -19 -23 9 -30 14 -3 24 -11 23 -18 -1 -6 18 -40 42 -75 25 -35 50 -70 55 -78 7 -10 5 -18 -7 -27 -9 -6 -16 -23 -16 -36 0 -36 -13 -83 -27 -100 -6 -8 -15 -24 -20 -35 -12 -33 -17 0 -6 41 12 43 12 41 -13 46 -16 3 -19 -5 -22 -71 -4 -78 -29 -173 -63 -238 -10 -22 -23 -57 -27 -78 -4 -22 -11 -51 -17 -65 -56 -139 -95 -264 -95 -304 0 -19 -8 -49 -17 -68 -10 -18 -22 -41 -26 -50 -5 -10 -9 -35 -9 -57 l0 -39 -117 -37 c-65 -20 -133 -41 -151 -47 -19 -5 -46 -16 -60 -24 -15 -8 -33 -14 -40 -14 -22 0 -266 -82 -286 -96 -11 -7 -52 -21 -92 -30 -54 -12 -75 -21 -79 -35 -6 -18 -44 -33 -116 -45 -33 -6 -36 -4 -46 30 -8 24 -8 38 -1 42 6 4 8 25 4 53 -4 25 -7 52 -8 60 -1 10 -5 9 -15 -4 -12 -17 -13 -16 -19 13 -6 28 -9 30 -22 20 -13 -11 -14 -10 -10 2 3 8 15 14 27 13 25 -3 27 6 6 33 -8 10 -15 35 -15 54 -1 35 -1 35 -17 13 -26 -38 -31 -26 -15 32 15 55 27 61 41 21 5 -12 7 15 4 62 -4 71 -2 86 12 96 15 11 16 19 6 66 -10 45 -9 57 5 77 10 16 13 34 9 50 -3 14 -1 31 5 39 7 7 9 18 5 24 -3 5 -8 32 -10 60 -2 38 0 50 11 50 15 0 16 7 19 142 1 48 4 91 8 94 4 4 1 14 -5 22 -20 23 -13 118 16 229 29 113 34 214 12 232 -12 10 -15 0 -21 -61 -4 -40 -13 -90 -20 -111 -7 -21 -11 -47 -8 -57 3 -11 1 -20 -5 -20 -17 0 -25 82 -12 129 6 23 8 50 5 60 -6 20 10 148 24 192 5 14 5 46 1 70 -5 25 -5 74 1 113 7 55 7 73 -4 83 -11 11 -16 10 -31 -6 -15 -16 -16 -23 -5 -42 8 -16 9 -24 1 -27 -6 -2 -9 -9 -6 -17 3 -7 -2 -25 -11 -39 -10 -14 -15 -33 -12 -41 7 -17 -11 -75 -24 -75 -4 0 -6 -7 -3 -15 4 -8 1 -22 -6 -30 -7 -8 -10 -21 -7 -29 3 -8 -1 -20 -9 -27 -9 -7 -13 -20 -11 -30 3 -10 -7 -30 -23 -48 -19 -20 -33 -51 -40 -88 -13 -62 -25 -83 -45 -83 -8 0 -11 8 -8 20 3 11 9 20 14 20 5 0 9 11 9 25 0 14 -5 25 -11 25 -6 0 -7 6 -2 12 4 7 7 20 8 28 0 8 7 34 14 58 11 34 12 45 2 55 -16 16 -41 -16 -34 -43 3 -11 0 -20 -6 -20 -6 0 -11 -17 -11 -40 0 -22 -4 -40 -10 -40 -15 0 -12 -17 7 -35 13 -13 14 -18 3 -25 -7 -5 -10 -17 -7 -30 3 -13 0 -23 -8 -26 -7 -3 -23 -28 -34 -55 -12 -27 -28 -49 -36 -49 -12 0 -10 11 11 52 19 36 27 71 29 117 2 36 8 79 14 94 13 35 14 37 1 37 -5 0 -15 -20 -21 -44 -8 -33 -18 -46 -43 -58 -29 -15 -33 -22 -55 -118 -18 -82 -26 -103 -42 -107 -14 -4 -18 -11 -14 -24 8 -24 -5 -24 -31 -1 -10 9 -30 16 -42 14 -19 -3 -23 0 -18 15 12 42 18 93 10 93 -5 0 -22 -27 -38 -60 l-28 -59 -42 5 c-48 7 -98 -9 -91 -28 3 -8 -9 -21 -29 -32 -19 -10 -36 -27 -39 -37 -3 -10 -13 -22 -24 -25 -10 -4 -35 -24 -56 -46 -21 -21 -47 -38 -58 -38 -12 0 -23 -10 -29 -25 -5 -13 -23 -31 -40 -40 -20 -10 -30 -22 -26 -31 7 -19 -3 -44 -19 -44 -8 0 -16 -8 -20 -19 -6 -19 -32 -51 -104 -126 -21 -22 -48 -59 -60 -82 -12 -24 -26 -43 -31 -43 -6 0 -10 -7 -10 -15 0 -8 -4 -15 -10 -15 -5 0 -10 -5 -10 -11 0 -10 -26 -41 -32 -39 -10 4 -37 -14 -33 -21 3 -4 13 -5 23 -2 15 6 16 5 2 -13 -8 -10 -21 -23 -27 -27 -7 -4 -13 -19 -13 -32 0 -14 -5 -25 -10 -25 -6 0 -15 -11 -20 -25 -5 -14 -17 -28 -25 -31 -8 -4 -15 -14 -15 -23 0 -9 -16 -38 -35 -65 -19 -27 -35 -55 -35 -62 0 -7 -6 -17 -12 -21 -11 -7 -40 -57 -96 -168 -9 -16 -25 -43 -37 -60 -29 -39 -57 -99 -54 -117 3 -26 -1 -36 -20 -41 -23 -6 -61 -63 -61 -92 0 -11 -7 -30 -15 -41 -8 -12 -16 -34 -19 -50 -3 -15 -15 -41 -26 -56 -11 -15 -20 -34 -20 -43 0 -8 -4 -15 -10 -15 -5 0 -10 -9 -10 -21 0 -12 -26 -64 -57 -117 -32 -54 -60 -101 -62 -107 -2 -5 -13 -22 -23 -37 -11 -16 -20 -41 -20 -56 -1 -19 -8 -32 -22 -38 -12 -5 -24 -24 -29 -44 -7 -34 -50 -70 -80 -70 -7 0 -32 -11 -57 -24 -25 -13 -66 -26 -93 -30 -33 -5 -52 -14 -62 -30 -14 -21 -60 -46 -143 -76 -18 -7 -37 -21 -43 -31 -5 -11 -16 -19 -25 -19 -8 0 -17 -6 -20 -14 -3 -8 -19 -20 -35 -26 -16 -7 -29 -17 -29 -23 0 -5 -11 -20 -25 -33 -54 -50 -21 -64 83 -36 77 20 109 22 58 3 -28 -11 -35 -31 -11 -31 27 0 16 -18 -30 -50 -25 -17 -45 -35 -45 -39 0 -19 135 -18 209 1 40 11 76 16 79 13 3 -3 5 -24 3 -46 -3 -66 -48 -125 -103 -136 -18 -3 -44 -12 -58 -20 -14 -7 -37 -13 -52 -13 -33 0 -45 -16 -17 -23 18 -5 59 4 135 28 21 6 21 5 10 -42 -6 -26 -19 -61 -27 -78 -9 -16 -27 -75 -39 -130 -13 -55 -29 -117 -36 -137 -10 -30 -10 -39 1 -48 33 -27 125 38 155 109 9 22 19 31 36 31 24 0 32 -14 15 -25 -9 -5 2 -61 14 -73 8 -8 44 28 51 52 4 11 15 27 25 34 10 7 19 22 21 34 2 13 14 28 28 35 24 12 25 13 3 13 -30 0 -29 15 3 62 30 43 36 45 55 21 8 -9 9 -14 3 -10 -7 4 -15 0 -18 -9 -3 -8 -2 -12 4 -9 13 8 4 -99 -11 -123 -9 -14 -9 -27 -1 -51 9 -26 8 -41 -8 -80 -10 -27 -17 -51 -15 -53 3 -2 -4 -28 -15 -56 -19 -50 -19 -52 -2 -52 21 0 62 43 62 66 0 17 19 56 31 64 5 3 10 21 11 40 2 23 12 43 29 57 15 13 30 34 33 48 6 22 12 25 49 25 28 0 47 6 57 18 28 32 43 71 37 93 -7 25 18 69 39 69 8 0 18 10 23 23 53 133 55 138 79 132 12 -3 22 -1 22 3 0 5 11 21 24 35 17 18 26 42 30 79 3 29 6 60 7 68 3 23 19 40 40 40 24 0 34 17 19 35 -8 10 -8 15 0 20 6 4 15 18 20 31 5 13 16 24 24 24 8 0 20 16 26 35 10 31 18 37 68 51 31 9 63 25 69 34 7 10 29 21 50 25 21 4 47 12 58 18 19 11 25 13 52 16 6 0 19 22 29 47 14 36 19 42 26 30 9 -16 45 -20 85 -10 16 4 24 17 29 40 7 38 12 41 29 18 11 -15 21 -12 106 29 179 86 208 94 210 55 1 -40 16 -131 33 -206 9 -40 28 -168 42 -285 14 -117 31 -218 37 -226 7 -8 11 -22 9 -32 -5 -27 55 -163 83 -189 14 -14 25 -35 25 -50 0 -30 16 -50 41 -50 12 0 30 -24 54 -67 45 -87 74 -125 75 -100 0 10 -9 35 -20 57 -33 65 -26 74 28 34 29 -22 63 -62 87 -103 22 -37 50 -80 62 -95 l22 -27 7 36 c5 30 0 52 -26 112 -24 55 -30 77 -21 82 9 6 4 28 -19 86 -17 43 -29 79 -27 82 3 2 12 -15 21 -39 24 -60 54 -98 77 -98 22 0 23 4 8 33 -10 20 -10 20 4 7 8 -8 43 -86 78 -172 35 -87 67 -158 71 -158 11 0 10 43 -2 74 -8 22 -7 26 9 26 13 0 27 -21 51 -75 18 -41 39 -80 46 -86 8 -6 14 -23 14 -36 0 -39 72 -136 94 -127 8 3 2 35 -21 106 -18 56 -33 114 -33 130 0 15 -13 70 -30 121 -31 98 -36 132 -21 141 13 8 7 56 -19 161 -24 95 -28 218 -8 242 8 10 4 15 -15 22 -20 8 -27 19 -32 48 -3 21 -8 46 -9 55 -4 19 21 33 27 15 6 -16 14 -7 22 24 5 21 2 27 -14 32 -21 5 -30 27 -11 27 7 0 7 6 1 18 -6 10 -8 28 -5 40 4 12 -6 43 -25 79 -21 40 -30 74 -31 108 -3 81 -1 95 13 95 6 0 17 11 24 25 10 24 9 25 -18 25 -28 0 -29 2 -29 44 0 61 16 102 34 87 10 -8 15 -3 23 23 10 32 9 35 -15 41 -27 7 -37 0 -45 -30 -3 -11 -5 -4 -4 15 2 30 6 35 30 38 29 4 34 11 16 29 -7 7 -8 19 -4 30 10 23 7 44 -11 64 -19 22 -18 63 4 82 9 8 37 20 61 27 24 6 58 25 74 41 33 34 137 89 166 89 24 0 195 68 241 97 19 12 47 24 62 28 15 4 29 13 32 20 3 8 23 19 45 26 23 7 41 16 41 21 0 5 11 13 25 18 14 5 25 14 25 20 0 14 -46 3 -85 -20 -16 -10 -67 -30 -111 -44 -45 -15 -90 -36 -100 -47 -20 -22 -66 -49 -84 -49 -26 0 -5 23 43 45 81 39 199 104 216 119 9 8 37 21 62 29 26 9 67 30 93 47 47 32 82 38 53 9 -8 -9 -18 -41 -22 -72 -4 -32 -11 -57 -16 -57 -5 0 -9 -15 -9 -34 0 -19 -5 -38 -11 -41 -6 -5 -8 -27 -3 -61 4 -36 3 -54 -5 -54 -5 0 -8 -7 -5 -15 4 -8 2 -21 -3 -28 -14 -18 -35 -88 -36 -122 -1 -17 -10 -36 -19 -43 -13 -9 -18 -27 -18 -60 -1 -26 -5 -78 -11 -117 -6 -38 -12 -114 -14 -168 -2 -54 -8 -103 -13 -110 -13 -16 -25 -147 -14 -147 5 0 23 23 41 51 25 40 31 61 31 104 0 59 14 75 65 75 l26 0 -6 -137 c-3 -76 -8 -153 -11 -171 -5 -30 -3 -33 18 -30 15 2 23 10 23 23 1 12 10 35 22 51 14 20 20 39 16 53 -3 13 -2 26 3 30 26 19 74 93 74 115 0 35 16 33 35 -4 9 -16 19 -30 23 -30 5 0 18 19 30 43 22 40 22 41 18 10 -3 -20 0 -36 9 -43 12 -10 15 -9 15 4 0 9 5 16 10 16 6 0 10 9 10 20 0 11 13 44 29 73 16 29 31 62 33 73 2 10 10 18 16 17 10 -3 17 24 13 50 0 4 4 7 9 7 6 0 10 6 10 14 0 8 5 18 12 22 7 5 9 2 5 -8 -3 -9 1 -37 8 -62 9 -30 12 -70 8 -118 -9 -117 20 -67 58 97 5 22 13 56 18 75 6 19 13 48 16 63 4 22 11 28 28 25 18 -2 21 -8 19 -32 -3 -20 0 -27 10 -24 18 6 36 46 42 92 3 20 11 44 18 53 7 9 12 24 10 34 -2 10 4 34 14 54 9 19 17 56 18 81 1 25 7 48 13 52 6 4 14 39 17 77 3 39 5 71 5 73 1 1 8 2 16 2 9 0 15 9 15 23 0 13 5 28 12 35 6 6 12 34 12 62 0 51 4 58 23 39 19 -19 31 -2 43 59 27 131 32 152 46 163 8 6 14 20 14 30 0 11 4 27 9 37 17 32 42 176 45 254 1 21 8 30 29 37 15 6 27 9 28 8 0 -1 2 -17 3 -35 4 -33 46 -98 106 -161 19 -21 57 -63 84 -95 45 -53 98 -96 120 -96 5 0 3 7 -4 15 -9 11 -10 19 -3 26 8 8 21 1 44 -21 30 -28 31 -31 11 -27 -15 4 -22 1 -19 -6 2 -7 22 -15 46 -18 23 -3 47 -11 53 -17 7 -7 37 -12 68 -12 48 0 64 5 99 31 43 30 65 33 42 5 -11 -13 -9 -14 17 -7 39 12 72 30 72 40 0 5 12 13 28 19 22 8 104 76 147 123 6 6 26 28 46 48 20 20 69 74 109 121 40 47 76 87 81 88 5 2 16 19 24 38 11 26 19 33 36 31 16 -1 29 7 43 31 12 17 40 57 64 88 23 31 42 63 42 70 0 16 9 17 30 4 12 -8 7 -17 -28 -52 -46 -45 -117 -157 -106 -167 3 -3 11 2 18 12 14 18 36 23 36 8 0 -5 -7 -14 -15 -21 -9 -8 -12 -22 -8 -41 4 -23 2 -29 -12 -29 -14 0 -16 -6 -10 -38 5 -29 2 -42 -9 -52 -9 -7 -16 -27 -17 -44 0 -17 -9 -62 -20 -101 -11 -39 -21 -108 -23 -155 -4 -155 -6 -168 -21 -184 -9 -9 -20 -49 -26 -97 -5 -45 -17 -95 -25 -112 -13 -24 -14 -34 -4 -52 7 -13 9 -32 5 -44 -4 -13 -2 -21 6 -21 8 0 8 -4 1 -13 -6 -7 -13 -42 -15 -77 -2 -37 -8 -65 -15 -68 -7 -2 -12 -26 -12 -62 0 -42 -4 -59 -15 -64 -10 -4 -15 -19 -15 -49 0 -23 -7 -69 -15 -102 -9 -34 -12 -62 -7 -67 11 -11 4 -144 -8 -173 -8 -18 -21 -142 -20 -187 2 -63 2 -93 -1 -176 -2 -52 -1 -96 4 -99 4 -2 7 -41 8 -86 0 -45 4 -91 8 -102 7 -17 10 -14 20 21 12 44 61 259 61 268 0 3 5 6 10 6 13 0 13 -46 0 -70 -7 -13 -7 -21 1 -25 18 -12 20 -1 22 106 2 78 8 114 22 146 25 52 36 55 28 7 -5 -28 -2 -39 10 -46 19 -10 23 -48 7 -64 -8 -8 -6 -15 5 -24 13 -11 18 -11 24 -1 5 7 17 11 27 9 15 -2 19 3 20 27 0 17 3 35 6 40 3 6 9 31 13 58 8 51 15 56 40 31 12 -13 19 -14 30 -4 8 7 15 19 15 27 0 8 5 11 11 8 6 -4 9 -27 8 -51 -5 -73 7 -58 20 26 15 102 28 137 50 143 15 4 19 20 24 96 4 51 12 100 17 109 8 13 9 9 5 -16 -4 -20 -2 -39 5 -47 19 -23 33 -18 26 10 -9 33 13 156 30 176 8 8 14 26 14 38 0 13 5 21 12 19 7 -3 11 -27 9 -71 -1 -37 1 -72 5 -79 9 -15 54 144 54 194 0 47 18 88 39 88 24 0 51 36 52 68 0 15 8 70 18 122 16 82 19 89 20 48 1 -45 21 -82 21 -39 0 12 9 44 20 73 11 29 23 85 26 123 7 81 29 135 53 135 36 0 58 50 69 160 7 58 19 139 27 180 8 41 19 99 25 129 11 61 16 69 31 54 15 -15 39 -5 39 17 0 10 10 49 21 86 12 38 28 105 35 149 14 82 33 180 59 295 15 65 16 342 2 357 -4 3 -7 1 -7 -6 0 -7 -9 -24 -20 -38 -11 -14 -20 -36 -20 -48 0 -12 -6 -28 -14 -34 -7 -6 -16 -35 -20 -64 -9 -73 -29 -151 -40 -159 -5 -3 -17 3 -26 15 -15 18 -16 26 -5 57 6 19 15 58 19 86 3 29 13 65 21 81 8 16 16 39 18 50 1 12 8 27 14 35 6 7 14 28 18 47 4 21 14 35 26 38 11 3 22 17 25 32 23 104 30 116 52 102 12 -7 11 -10 -24 -116 -21 -60 -19 -65 17 -55 18 5 33 11 35 12 2 3 41 137 90 308 8 30 21 71 29 90 14 39 55 201 71 287 5 26 2 32 -16 38 -13 4 -25 3 -29 -3 -7 -11 -87 -9 -98 2 -4 3 -1 6 5 6 7 0 12 10 12 23 0 28 -42 61 -90 71 -19 3 -42 16 -51 27 -8 12 -28 22 -42 22 -27 2 -27 2 -21 65 6 53 4 62 -10 62 -9 0 -17 -6 -17 -12z m26 -157 c-3 -12 -10 -21 -15 -21 -4 0 -3 11 3 24 14 29 22 27 12 -3z m105 -151 c0 -11 -7 -20 -15 -20 -8 0 -15 9 -15 20 0 11 7 20 15 20 8 0 15 -9 15 -20z m100 -124 c0 -8 -14 -40 -30 -72 -17 -31 -31 -72 -32 -91 -1 -18 -7 -38 -15 -44 -7 -6 -13 -18 -13 -25 0 -8 -4 -14 -10 -14 -13 0 -13 17 1 80 6 27 15 50 20 50 5 0 9 9 9 19 0 11 4 22 9 25 4 3 11 24 15 46 5 31 11 40 26 40 11 0 20 -6 20 -14z m-702 -55 c-30 -39 -46 -40 -18 -1 12 17 26 30 31 30 6 0 0 -13 -13 -29z m-2078 -136 c0 -7 5 -15 12 -17 7 -3 9 -12 4 -23 -6 -17 -9 -15 -27 14 -11 18 -17 37 -14 42 8 12 25 2 25 -16z m295 -25 c10 -11 15 -20 11 -20 -14 0 -46 21 -46 30 0 16 16 11 35 -10z m125 -112 c0 -24 -66 25 -86 64 -15 30 -14 29 35 -13 28 -24 51 -47 51 -51z m-1870 73 c0 -6 -4 -13 -10 -16 -5 -3 -10 1 -10 9 0 9 5 16 10 16 6 0 10 -4 10 -9z m1516 -16 c17 -16 14 -18 -10 -9 -9 3 -16 10 -16 15 0 13 9 11 26 -6z m2644 -30 c10 -12 10 -18 0 -30 -17 -20 -44 -20 -36 1 3 9 6 22 6 30 0 18 14 18 30 -1z m-2430 -17 c36 -26 41 -53 8 -45 -12 4 -28 1 -36 -5 -11 -10 -16 -8 -25 7 -7 11 -13 30 -14 43 -2 29 28 29 67 0z m160 -152 c0 -8 9 -18 21 -21 30 -10 8 -28 -24 -20 -15 4 -29 15 -32 25 -4 13 -12 17 -22 13 -11 -4 -14 -2 -9 5 11 17 66 15 66 -2z m312 -196 c43 -44 29 -48 -17 -5 -22 19 -33 35 -26 35 7 0 26 -14 43 -30z m-2412 10 c0 -5 -4 -10 -10 -10 -5 0 -10 5 -10 10 0 6 5 10 10 10 6 0 10 -4 10 -10z m2390 -55 c19 -21 21 -25 7 -30 -17 -7 -69 33 -61 47 9 15 30 8 54 -17z m114 -74 c4 -5 0 -12 -6 -14 -7 -3 -3 -6 9 -6 27 -1 38 -17 17 -25 -15 -6 -53 28 -54 47 0 10 28 9 34 -2z m1578 -71 c-2 -16 -8 -30 -13 -30 -10 0 -12 43 -2 53 14 14 19 6 15 -23z m-1492 -15 c0 -9 9 -15 25 -15 16 0 25 -6 25 -15 0 -9 8 -27 17 -41 l17 -26 8 22 c5 13 11 20 14 17 3 -3 -2 -19 -11 -37 -15 -30 -15 -33 1 -44 12 -9 13 -15 6 -20 -11 -6 -84 37 -142 83 -23 18 -23 20 -7 27 12 4 26 -1 41 -15 23 -22 56 -28 56 -11 0 6 -6 10 -14 10 -8 0 -18 5 -22 12 -5 8 -2 9 9 5 10 -3 17 -2 17 3 0 4 -13 11 -30 15 -21 5 -30 13 -30 26 0 10 5 19 10 19 6 0 10 -7 10 -15z m5 -205 c-3 -5 -12 -7 -20 -3 -21 7 -19 13 6 13 11 0 18 -4 14 -10z m1478 -32 c-3 -16 -9 -28 -14 -28 -10 0 -11 16 -3 48 9 32 24 14 17 -20z m-3905 -23 c-1 -14 -5 -25 -9 -25 -9 0 -19 41 -13 52 10 15 24 -3 22 -27z m3986 8 c-3 -16 -7 -34 -10 -40 -4 -16 5 -43 16 -43 4 0 13 20 20 45 7 25 15 43 18 40 3 -2 11 0 19 6 20 17 17 -38 -7 -151 -25 -117 -40 -156 -51 -138 -5 7 -6 21 -3 32 3 10 9 42 13 71 7 49 6 54 -13 59 -11 3 -17 8 -13 12 3 3 -4 15 -16 25 -21 18 -21 19 -3 33 13 11 17 24 14 45 -3 22 0 31 9 31 9 0 12 -8 7 -27z m-104 -75 c0 -30 -13 -58 -26 -58 -17 0 -18 24 -4 51 12 21 30 26 30 7z m22 -253 c-15 -30 -30 -55 -33 -55 -16 0 -16 31 -1 64 14 31 25 40 54 45 4 0 -5 -24 -20 -54z m-2087 -5 c4 -6 -2 -34 -14 -63 -11 -29 -22 -61 -26 -71 -4 -15 -8 -17 -18 -7 -9 9 -8 22 6 59 10 26 21 57 24 70 6 23 18 29 28 12z m1745 -18 c0 -13 -12 -22 -22 -16 -10 6 -1 24 13 24 5 0 9 -4 9 -8z m-41 -148 c-18 -22 -39 -83 -33 -99 3 -6 -2 -17 -9 -24 -12 -9 -16 -7 -21 13 -9 35 33 126 58 126 16 0 17 -2 5 -16z m-1723 -30 c-3 -9 -6 -23 -6 -31 0 -13 -3 -13 -15 -3 -23 19 -19 50 6 50 15 0 19 -4 15 -16z m-1929 -80 c-3 -3 -12 -4 -19 -1 -8 3 -5 6 6 6 11 1 17 -2 13 -5z m2313 -25 c0 -14 -17 -10 -23 5 -4 10 -1 13 9 9 7 -3 14 -9 14 -14z m1690 -9 c0 -11 -4 -20 -9 -20 -5 0 -7 9 -4 20 3 11 7 20 9 20 2 0 4 -9 4 -20z m-2855 -17 c-4 -10 -13 -36 -20 -58 -28 -85 -43 -105 -82 -105 -41 0 -131 -24 -188 -50 -22 -11 -71 -26 -110 -35 -38 -8 -78 -18 -88 -21 -18 -6 -18 -5 -2 20 10 14 23 26 30 26 6 0 20 10 31 21 32 37 90 68 113 62 14 -3 23 0 27 11 4 10 18 16 35 16 17 0 32 6 35 15 4 8 18 15 34 15 18 0 30 7 36 21 6 12 37 33 74 49 78 34 84 35 75 13z m-1000 -102 c7 -23 -4 -53 -17 -45 -6 4 -7 19 -4 35 4 22 2 29 -9 29 -8 0 -15 5 -15 10 0 17 38 -7 45 -29z m3745 8 c0 -11 -4 -17 -10 -14 -5 3 -10 13 -10 21 0 8 5 14 10 14 6 0 10 -9 10 -21z m-320 -40 c0 -16 -20 -49 -30 -49 -5 0 -4 13 1 30 11 29 29 41 29 19z m-1798 -52 c-6 -12 -16 -47 -23 -77 -12 -55 -42 -110 -60 -110 -14 0 -11 40 5 46 7 3 16 25 20 50 6 46 31 104 50 116 17 11 20 0 8 -25z m-701 -11 c-6 -8 -10 -19 -9 -26 4 -16 -53 -33 -65 -21 -6 6 -28 4 -55 -4 -25 -8 -48 -12 -50 -10 -10 9 176 88 187 79 2 -2 -1 -10 -8 -18z m-1655 -88 c2 -29 -3 -41 -17 -49 -22 -11 -27 -51 -5 -43 8 3 17 0 22 -7 4 -7 2 -15 -4 -17 -16 -5 -15 -49 1 -55 9 -3 9 -9 0 -24 -6 -12 -15 -36 -18 -55 -6 -34 -10 -36 -128 -83 -67 -26 -137 -56 -155 -66 -58 -33 -63 -25 -26 51 19 38 42 73 51 78 11 7 13 14 6 27 -9 15 -12 14 -34 -14 -58 -76 -66 -84 -77 -77 -8 5 1 21 26 48 20 22 36 45 34 51 -2 6 1 13 5 16 4 4 28 46 53 94 45 89 62 105 68 67 4 -25 18 -26 31 -1 6 10 22 22 36 25 17 4 25 13 25 27 0 12 15 38 33 59 l32 37 20 -25 c10 -14 20 -43 21 -64z m1437 -5 c-7 -2 -19 -2 -25 0 -7 3 -2 5 12 5 14 0 19 -2 13 -5z m-390 -64 c-18 -18 -141 -59 -176 -59 -23 1 -5 10 68 35 108 37 125 41 108 24z m3429 -39 c-2 -16 -8 -30 -13 -30 -10 0 -12 43 -2 53 14 14 19 6 15 -23z m-2232 10 c12 -6 16 -17 13 -30 -3 -12 0 -20 7 -20 6 0 14 9 17 20 3 11 9 20 14 20 13 0 11 -9 -10 -44 -11 -17 -25 -60 -31 -94 -6 -35 -15 -74 -20 -87 -5 -14 -5 -26 3 -34 8 -8 8 -17 0 -33 -6 -13 -14 -31 -17 -41 -3 -11 -11 -15 -18 -11 -8 5 -9 2 -5 -9 8 -21 -10 -32 -28 -17 -21 18 -19 36 9 63 18 18 21 28 14 35 -8 8 -8 15 0 25 6 7 9 23 5 35 -3 12 -1 22 5 22 16 0 36 136 21 146 -10 6 -13 64 -3 64 3 0 14 -4 24 -10z m-47 -55 c1 -5 -6 -11 -15 -13 -11 -2 -18 3 -18 13 0 17 30 18 33 0z m-2549 -32 c-9 -37 -20 -57 -38 -73 -14 -10 -16 -10 -16 6 0 11 7 28 15 38 8 11 15 28 15 38 0 10 7 18 15 18 12 0 14 -7 9 -27z m4405 -20 c-4 -21 -8 -39 -9 -40 0 -2 0 -8 0 -15 0 -9 -3 -9 -12 0 -9 9 -8 21 2 52 17 50 31 53 19 3z m-7 -138 c-2 -14 -6 -25 -8 -25 -2 0 -4 11 -4 25 0 14 4 25 9 25 4 0 6 -11 3 -25z m-39 -83 c-6 -24 -23 -30 -23 -9 0 13 21 39 26 34 2 -2 1 -13 -3 -25z m-4438 -32 c-3 -5 -15 -10 -26 -10 -10 0 -19 5 -19 10 0 6 12 10 26 10 14 0 23 -4 19 -10z m4422 -32 c-3 -8 -6 -5 -6 6 -1 11 2 17 5 13 3 -3 4 -12 1 -19z m-12 -68 c-5 -8 -11 -8 -17 -2 -6 6 -7 16 -3 22 5 8 11 8 17 2 6 -6 7 -16 3 -22z m-3215 -26 c0 -8 -4 -12 -10 -9 -5 3 -10 13 -10 21 0 8 5 12 10 9 6 -3 10 -13 10 -21z m1153 -104 c3 -11 1 -20 -4 -20 -5 0 -9 9 -9 20 0 11 2 20 4 20 2 0 6 -9 9 -20z m2254 -32 c-3 -7 -5 -2 -5 12 0 14 2 19 5 13 2 -7 2 -19 0 -25z m-2263 -34 c7 -18 0 -34 -15 -34 -5 0 -9 11 -9 25 0 28 15 34 24 9z m1970 -43 c-4 -17 -9 -30 -11 -27 -3 2 -2 19 2 36 9 41 17 33 9 -9z m-4009 -11 c-20 -22 -77 -43 -102 -38 -12 3 -2 9 25 18 23 7 47 19 53 27 6 7 18 13 27 13 13 0 12 -3 -3 -20z m2001 -57 c-11 -11 -17 4 -9 23 7 18 8 18 11 1 2 -10 1 -21 -2 -24z m-2391 -103 c-3 -5 -15 -10 -26 -10 -10 0 -19 5 -19 10 0 6 12 10 26 10 14 0 23 -4 19 -10z m-606 -203 c-5 -18 -9 -33 -9 -34 0 -2 -9 -3 -20 -3 -24 0 -24 -1 -5 43 20 47 48 42 34 -6z m1641 -148 c0 -6 -4 -7 -10 -4 -5 3 -10 11 -10 16 0 6 5 7 10 4 6 -3 10 -11 10 -16z m-1766 -58 c3 -5 -1 -11 -9 -15 -15 -6 -29 7 -18 18 9 9 21 8 27 -3z m-24 -71 c0 -5 -7 -10 -16 -10 -8 0 -12 5 -9 10 3 6 10 10 16 10 5 0 9 -4 9 -10z m45 -30 c3 -5 2 -10 -4 -10 -5 0 -13 5 -16 10 -3 6 -2 10 4 10 5 0 13 -4 16 -10z m-73 -32 c-7 -7 -12 -20 -12 -30 0 -10 -7 -18 -15 -18 -22 0 -18 27 7 44 27 19 37 21 20 4z m1871 -85 c12 -31 14 -52 8 -85 -6 -31 -9 -35 -10 -16 -1 17 -10 34 -26 44 -23 15 -24 17 -9 45 9 18 12 39 8 52 -11 37 11 6 29 -40z m-1898 -43 c3 -5 2 -10 -3 -10 -5 0 -15 -13 -22 -30 -13 -31 -30 -40 -30 -15 0 43 39 82 55 55z m1669 -16 c10 -26 7 -124 -4 -124 -5 0 -10 3 -11 8 0 4 -2 23 -5 42 -10 80 -10 90 2 90 6 0 15 -7 18 -16z m65 -33 c9 -6 10 -11 2 -15 -13 -8 -31 1 -31 15 0 11 11 11 29 0z m231 -41 c0 -12 -5 -17 -14 -14 -8 3 -12 13 -9 25 6 23 23 15 23 -11z"/>
<path d="M12877 6422 c-26 -27 -34 -52 -20 -65 9 -9 53 33 53 50 0 8 7 16 16 20 13 5 13 7 2 14 -19 13 -22 12 -51 -19z"/>
<path d="M12696 8894 c-4 -9 -4 -19 -1 -22 2 -3 7 3 11 12 4 9 4 19 1 22 -2 3 -7 -3 -11 -12z"/>
<path d="M12665 8881 c-3 -11 -3 -31 1 -46 5 -20 9 -24 18 -14 8 8 8 13 -1 16 -8 3 -10 15 -6 34 6 32 -2 40 -12 10z"/>
<path d="M5385 8660 c-17 -7 -14 -9 13 -9 20 -1 31 3 27 9 -7 12 -13 12 -40 0z"/>
<path d="M5325 8630 c-19 -8 -19 -9 2 -9 12 -1 25 4 28 9 7 12 -2 12 -30 0z"/>
<path d="M13967 8633 c-4 -3 -7 -19 -7 -34 0 -15 -5 -40 -11 -56 -6 -15 -12 -48 -14 -73 -2 -24 -8 -46 -14 -48 -16 -5 -14 -22 3 -22 23 0 37 26 42 77 10 112 12 129 19 146 7 17 -5 24 -18 10z"/>
<path d="M12495 8543 c-10 -21 -24 -45 -32 -54 -8 -9 -15 -27 -15 -40 -1 -13 -6 -30 -11 -36 -6 -9 -5 -13 5 -13 19 0 43 43 63 113 20 69 15 83 -10 30z"/>
<path d="M15110 8561 c0 -17 12 -41 20 -41 10 0 1 38 -11 46 -5 3 -9 1 -9 -5z"/>
<path d="M5000 8510 c-12 -8 -11 -10 7 -10 12 0 25 5 28 10 8 13 -15 13 -35 0z"/>
<path d="M4938 8473 c6 -2 18 -2 25 0 6 3 1 5 -13 5 -14 0 -19 -2 -12 -5z"/>
<path d="M12416 8423 c-6 -14 -5 -15 5 -6 7 7 10 15 7 18 -3 3 -9 -2 -12 -12z"/>
<path d="M13920 8324 c-10 -25 -3 -110 8 -99 7 7 13 125 6 125 -2 0 -9 -12 -14 -26z"/>
<path d="M15759 8326 c18 -17 21 -17 42 -3 26 19 13 28 -33 24 -27 -2 -27 -2 -9 -21z"/>
<path d="M12312 8258 c-14 -14 -16 -28 -3 -28 9 0 24 30 18 36 -2 2 -9 -2 -15 -8z"/>
<path d="M13575 8219 c-4 -6 -5 -13 -2 -16 7 -7 27 6 27 18 0 12 -17 12 -25 -2z"/>
<path d="M4286 7769 c-15 -12 -25 -23 -22 -26 7 -7 66 26 66 37 0 16 -15 12 -44 -11z"/>
<path d="M6895 7410 c3 -5 14 -10 23 -10 15 0 15 2 2 10 -20 13 -33 13 -25 0z"/>
<path d="M11291 7264 c0 -11 3 -14 6 -6 3 7 2 16 -1 19 -3 4 -6 -2 -5 -13z"/>
<path d="M16950 7164 c0 -8 5 -12 10 -9 6 4 8 11 5 16 -9 14 -15 11 -15 -7z"/>
<path d="M17785 7054 c-11 -62 17 -59 30 4 5 25 3 32 -8 32 -9 0 -17 -14 -22 -36z"/>
<path d="M8117 7074 c-14 -14 -6 -24 19 -24 16 0 24 5 22 13 -5 14 -31 21 -41 11z"/>
<path d="M11625 6970 c4 -6 11 -8 16 -5 14 9 11 15 -7 15 -8 0 -12 -5 -9 -10z"/>
<path d="M9135 6849 c-12 -19 5 -23 22 -6 16 16 16 17 1 17 -9 0 -20 -5 -23 -11z"/>
<path d="M3310 6662 c-30 -29 -50 -57 -50 -70 0 -15 5 -20 15 -16 21 9 19 -6 -7 -33 -12 -13 -19 -26 -15 -29 13 -13 37 6 51 41 9 22 22 35 33 35 10 0 24 13 31 30 7 16 22 32 32 35 27 8 34 35 10 35 -11 0 -20 5 -20 10 0 23 -33 7 -80 -38z"/>
<path d="M16208 6643 c7 -3 16 -2 19 1 4 3 -2 6 -13 5 -11 0 -14 -3 -6 -6z"/>
<path d="M5535 6619 c-4 -11 -4 -23 -1 -26 8 -9 36 17 36 33 0 22 -28 16 -35 -7z"/>
<path d="M10565 6590 c-19 -8 -19 -9 2 -9 12 -1 25 4 28 9 7 12 -2 12 -30 0z"/>
<path d="M7980 6275 c0 -9 5 -15 11 -13 6 2 11 8 11 13 0 5 -5 11 -11 13 -6 2 -11 -4 -11 -13z"/>
<path d="M10900 5090 c0 -5 6 -10 14 -10 8 0 18 5 21 10 3 6 -3 10 -14 10 -12 0 -21 -4 -21 -10z"/>
<path d="M11155 4900 c-16 -4 -50 -17 -75 -29 l-45 -21 37 0 c20 0 40 5 44 11 3 6 25 19 48 29 43 20 41 23 -9 10z"/>
<path d="M8922 4678 c6 -18 25 -20 31 -3 5 10 0 15 -14 15 -12 0 -19 -5 -17 -12z"/>
<path d="M6550 4309 c0 -5 5 -7 10 -4 6 3 10 8 10 11 0 2 -4 4 -10 4 -5 0 -10 -5 -10 -11z"/>
<path d="M6467 3714 c-2 -14 2 -29 11 -36 13 -11 15 -10 9 6 -4 10 -3 24 3 31 8 9 6 14 -4 18 -9 4 -16 -3 -19 -19z"/>
</g>
</svg>